<svg width="955" height="368" viewBox="0 0 955 368" fill="none" xmlns="http://www.w3.org/2000/svg">
<g clip-path="url(#clip0_733_8780)">
<path d="M161.644 242.49C161.71 242.533 161.797 242.533 161.862 242.49L161.905 242.468L161.938 242.49L161.971 242.424L263.326 184.761L263.402 184.761L263.402 184.717L263.51 184.652C263.576 184.608 263.619 184.543 263.619 184.466C263.619 184.39 263.576 184.314 263.51 184.281L161.851 126.443C161.786 126.4 161.699 126.411 161.634 126.443C161.568 126.487 161.525 126.552 161.525 126.629L161.525 242.304C161.525 242.381 161.568 242.457 161.634 242.49L161.644 242.49ZM262.456 184.761L211.952 213.494C211.952 213.494 211.974 213.462 211.985 213.451L228.49 184.761L262.456 184.761ZM186.521 199.019L210.908 213.124L178.693 213.124L178.617 212.993L186.521 199.019ZM178.367 212.556L162.623 185.197L186.141 198.8L178.367 212.556ZM228 184.75L211.702 213.069L186.739 198.637L194.589 184.75L228 184.75ZM262.738 184.314L228.598 184.314L211.996 155.471C211.996 155.471 211.974 155.439 211.963 155.428L262.738 184.314ZM186.206 170.165L162.503 183.943L178.377 156.366L186.217 170.165L186.206 170.165ZM178.617 155.929L178.693 155.799L210.919 155.799L186.575 169.947L178.617 155.929ZM211.702 155.842L228.087 184.314L194.741 184.314L186.793 170.318L211.702 155.831L211.702 155.842ZM211.854 155.373C211.854 155.373 211.822 155.373 211.8 155.373L178.562 155.373C178.486 155.373 178.41 155.417 178.377 155.482L178.377 155.504L162.264 127.163L211.844 155.373L211.854 155.373ZM161.971 127.523L178.106 155.94L161.971 183.987L161.971 127.523ZM186.412 170.547L194.317 184.456L194.262 184.423L186.358 198.419L162.34 184.532L186.412 170.536L186.412 170.547ZM161.971 184.936L178.117 212.993L161.971 241.552L161.971 184.936ZM178.367 213.429L178.367 213.44C178.41 213.505 178.486 213.549 178.562 213.549L211.8 213.549C211.8 213.549 211.833 213.549 211.854 213.549L162.395 241.682L178.367 213.429Z" fill="#8DA0D0"/>
<path d="M323.386 184.543C323.386 184.652 323.43 184.761 323.495 184.848L391.569 303.153C391.655 303.305 391.829 303.404 392.003 303.404L528.194 303.404C528.379 303.404 528.542 303.305 528.629 303.153L596.725 184.816C596.812 184.663 596.812 184.467 596.725 184.303L528.629 65.9658C528.542 65.813 528.368 65.7149 528.194 65.7149L527.303 65.7149C527.238 65.6276 527.14 65.5512 527.031 65.5294C526.835 65.4749 526.629 65.5512 526.498 65.7149L393.341 65.7149C393.221 65.5512 393.015 65.4749 392.808 65.5294C392.688 65.5621 392.601 65.6276 392.536 65.7149L392.003 65.7149C391.819 65.7149 391.656 65.813 391.569 65.9658L323.56 184.15C323.451 184.248 323.386 184.379 323.386 184.532L323.386 184.543ZM392.308 302.389L325.321 185.972L392.449 225.887L392.449 302.389L392.308 302.389ZM461.48 185.972L526.4 225.199L526.4 300.971L461.48 185.972ZM525.585 301.582L460.925 265.583L460.925 187.041L525.585 301.593L525.585 301.582ZM459.903 265.714L394.276 301.604L459.903 185.896L459.903 265.714ZM393.46 300.982L393.46 226.039L458.685 186.005L393.46 300.982ZM394.939 302.389L460.534 266.521L524.954 302.389L394.939 302.389ZM527.912 302.389L527.412 302.389L527.412 225.887L594.931 185.928L527.912 302.389ZM594.42 185.045L527.368 224.73C527.325 224.632 527.259 224.534 527.161 224.48L461.904 185.045L594.42 185.045ZM458.283 185.045L393.069 225.079L325.735 185.045L458.283 185.045ZM527.901 66.7294L594.876 183.114L527.401 142.872L527.401 66.7403L527.901 66.7403L527.901 66.7294ZM394.395 67.5584L459.892 103.688L459.892 183.179L394.395 67.5584ZM458.533 182.83L393.449 142.883L393.449 67.9402L458.533 182.83ZM460.903 103.546L525.433 67.5693L460.903 182.045L460.903 103.546ZM526.39 67.9402L526.39 143.712L461.599 182.852L526.39 67.9402ZM524.856 66.7294L460.273 102.739L394.993 66.7294L524.856 66.7294ZM392.297 66.7294L392.438 66.7294L392.438 142.872L325.354 183.07L392.297 66.7403L392.297 66.7294ZM325.724 184.03L392.938 143.755L458.544 184.03L325.724 184.03ZM461.632 184.03L527.151 144.443C527.292 144.355 527.379 144.214 527.39 144.05L594.42 184.03L461.621 184.03L461.632 184.03Z" fill="#8DA0D0"/>
<path d="M729.534 256.835L742.755 207.931L765.196 220.836C765.294 220.891 765.424 220.88 765.5 220.793C765.576 220.716 765.598 220.585 765.544 220.487L752.681 197.972L801.424 184.707C801.532 184.674 801.608 184.576 801.608 184.456C801.608 184.336 801.532 184.238 801.424 184.205L752.681 170.94L765.544 148.424C765.598 148.326 765.587 148.195 765.5 148.119C765.424 148.043 765.294 148.021 765.196 148.075L742.755 160.98L729.534 112.077C729.501 111.968 729.403 111.891 729.283 111.891C729.164 111.891 729.066 111.968 729.033 112.077L715.812 160.98L693.371 148.075C693.273 148.021 693.143 148.032 693.067 148.119C693.023 148.174 692.99 148.228 692.99 148.304C692.99 148.348 693.001 148.392 693.023 148.435L705.885 170.951L657.143 184.216C657.035 184.248 656.958 184.347 656.958 184.467C656.958 184.587 657.035 184.685 657.143 184.718L705.885 197.982L693.023 220.498C693.023 220.498 692.99 220.585 692.99 220.629C692.99 220.694 693.012 220.76 693.067 220.814C693.143 220.891 693.273 220.912 693.371 220.858L715.812 207.953L729.033 256.857C729.066 256.966 729.164 257.042 729.283 257.042C729.403 257.042 729.501 256.966 729.534 256.857L729.534 256.835ZM729.903 184.707L744.233 184.707L739.014 193.848L729.903 184.707ZM738.656 194.208L729.544 199.444L729.544 185.067L738.656 194.208ZM729.903 184.194L739.014 175.052L744.233 184.194L729.903 184.194ZM729.544 183.834L729.544 169.456L738.656 174.692L729.544 183.834ZM729.033 183.834L719.922 174.692L729.033 169.456L729.033 183.834ZM728.675 184.194L714.344 184.194L719.563 175.052L728.675 184.194ZM728.675 184.707L719.563 193.848L714.344 184.707L728.675 184.707ZM729.033 185.067L729.033 199.444L719.922 194.208L729.033 185.067ZM729.794 199.881L739.014 194.579L744.168 199.75L734.252 202.444L729.784 199.881L729.794 199.881ZM733.567 202.64L729.544 203.731L729.544 200.317L733.567 202.63L733.567 202.64ZM744.309 200.252L742.439 207.157L734.883 202.815L744.299 200.252L744.309 200.252ZM744.538 199.401L739.384 194.23L744.668 184.979L747.223 189.463L744.538 199.412L744.538 199.401ZM747.582 190.085L751.909 197.655L745.027 199.532L747.582 190.085ZM745.103 184.718L748.506 184.718L747.408 188.754L745.103 184.718ZM745.103 184.205L747.408 180.169L748.506 184.205L745.103 184.205ZM744.668 183.943L739.384 174.692L744.538 169.522L747.223 179.47L744.668 183.954L744.668 183.943ZM745.027 169.391L751.909 171.267L747.582 178.849L745.027 169.402L745.027 169.391ZM744.179 169.162L739.025 174.333L729.805 169.031L734.274 166.467L744.19 169.162L744.179 169.162ZM734.894 166.107L742.45 161.766L744.32 168.671L734.905 166.107L734.894 166.107ZM729.544 168.595L729.544 165.18L733.567 166.271L729.544 168.584L729.544 168.595ZM729.033 168.595L725.01 166.282L729.033 165.191L729.033 168.605L729.033 168.595ZM728.772 169.031L719.552 174.333L714.399 169.162L724.315 166.467L728.783 169.031L728.772 169.031ZM714.268 168.671L716.138 161.766L723.695 166.107L714.279 168.671L714.268 168.671ZM714.04 169.522L719.194 174.692L713.909 183.943L711.354 179.46L714.04 169.511L714.04 169.522ZM710.996 178.838L706.668 171.256L713.551 169.38L710.996 178.827L710.996 178.838ZM713.475 184.205L710.071 184.205L711.17 180.169L713.475 184.205ZM713.475 184.718L711.17 188.754L710.071 184.718L713.475 184.718ZM713.909 184.979L719.194 194.23L714.04 199.401L711.354 189.452L713.909 184.968L713.909 184.979ZM713.551 199.532L706.668 197.655L710.996 190.085L713.551 199.532ZM714.399 199.761L719.552 194.59L728.772 199.892L724.304 202.455L714.388 199.761L714.399 199.761ZM723.684 202.815L716.138 207.157L714.268 200.251L723.684 202.815ZM729.033 200.328L729.033 203.742L725.01 202.651L729.033 200.339L729.033 200.328ZM729.544 204.266L734.198 203L742.309 207.658L729.544 254.849L729.544 204.266ZM744.799 200.371L763.793 219.429L742.896 207.408L744.799 200.371ZM764.152 219.069L745.158 200.012L752.17 198.102L764.152 219.069ZM747.767 189.365L749.028 184.696L799.445 184.696L752.41 197.503L747.767 189.365ZM799.445 184.183L749.028 184.183L747.767 179.514L752.41 171.376L799.445 184.183ZM745.147 168.878L764.141 149.821L752.16 170.787L745.147 168.878ZM763.782 149.461L744.788 168.518L742.885 161.482L763.782 149.461ZM734.176 165.9L729.523 164.635L729.523 114.051L742.287 161.242L734.176 165.9ZM729.012 114.051L729.012 164.635L724.358 165.9L716.247 161.242L729.012 114.051ZM713.757 168.529L694.763 149.472L715.66 161.493L713.757 168.529ZM694.404 149.832L713.398 168.889L706.386 170.798L694.404 149.832ZM710.789 179.536L709.528 184.205L659.111 184.205L706.146 171.398L710.789 179.536ZM659.111 184.718L709.528 184.718L710.789 189.386L706.146 197.524L659.111 184.718ZM713.409 200.022L694.415 219.08L706.396 198.113L713.409 200.022ZM694.774 219.44L713.768 200.382L715.671 207.418L694.774 219.44ZM724.38 203L729.033 204.266L729.033 254.849L716.269 207.658L724.38 203Z" fill="#8DA0D0"/>
<path d="M64.8989 184.456C64.8989 167.678 78.5006 154.021 95.2337 154.021C111.967 154.021 125.568 167.667 125.568 184.456C125.568 201.244 111.967 214.891 95.2337 214.891C78.5006 214.891 64.8989 201.244 64.8989 184.456ZM124.101 184.456C124.101 168.485 111.151 155.493 95.2337 155.493C79.3161 155.493 66.3668 168.485 66.3668 184.456C66.3668 200.426 79.3161 213.418 95.2337 213.418C111.151 213.418 124.101 200.426 124.101 184.456Z" fill="#8DA0D0"/>
<path d="M111.108 184.456C111.108 176.863 117.262 170.689 124.829 170.689C132.397 170.689 138.551 176.863 138.551 184.456C138.551 192.048 132.397 198.222 124.829 198.222C117.262 198.222 111.108 192.048 111.108 184.456ZM137.094 184.456C137.094 177.671 131.592 172.151 124.829 172.151C118.067 172.151 112.565 177.671 112.565 184.456C112.565 191.241 118.067 196.761 124.829 196.761C131.592 196.761 137.094 191.241 137.094 184.456Z" fill="#8DA0D0"/>
<path d="M292.183 185.413C292.181 185.011 292.508 184.685 292.91 184.685C293.312 184.685 293.638 185.011 293.64 185.413C293.648 186.865 293.679 188.332 293.724 189.784C293.736 190.185 293.423 190.522 293.021 190.537C292.618 190.552 292.279 190.236 292.267 189.833C292.222 188.363 292.191 186.883 292.183 185.413ZM292.268 178.805C292.326 177.096 292.408 175.37 292.515 173.665C292.54 173.262 292.888 172.958 293.291 172.985C293.693 173.012 293.997 173.36 293.971 173.763C293.88 175.211 293.807 176.673 293.752 178.122C293.736 178.529 293.395 178.849 292.987 178.837L292.279 178.816C292.273 178.816 292.268 178.811 292.268 178.805ZM292.645 197.162C292.616 196.759 292.921 196.411 293.323 196.384C293.725 196.357 294.073 196.661 294.103 197.063C294.208 198.511 294.338 199.967 294.486 201.408C294.527 201.811 294.235 202.173 293.833 202.215C293.431 202.257 293.071 201.966 293.03 201.564C292.881 200.101 292.751 198.624 292.645 197.162ZM293.058 167.073C293.059 167.075 293.063 167.074 293.063 167.071C293.234 165.375 293.438 163.653 293.661 161.965C293.714 161.565 294.082 161.286 294.481 161.34C294.88 161.394 295.16 161.762 295.106 162.162C294.9 163.71 294.71 165.276 294.548 166.837C294.526 167.048 294.337 167.202 294.126 167.18L293.06 167.068C293.057 167.068 293.055 167.071 293.058 167.073ZM293.833 208.116C293.833 208.116 293.832 208.115 293.833 208.115L295.173 207.923C295.226 207.915 295.275 207.952 295.283 208.005C295.517 209.644 295.775 211.306 296.058 212.95C296.126 213.347 295.861 213.725 295.464 213.794C295.068 213.864 294.691 213.599 294.623 213.203C294.335 211.515 294.072 209.808 293.834 208.117C293.834 208.117 293.834 208.116 293.833 208.116ZM294.66 155.429C294.66 155.428 294.66 155.427 294.661 155.427C294.956 153.747 295.275 152.05 295.62 150.374C295.702 149.978 296.09 149.726 296.485 149.81C296.877 149.894 297.128 150.279 297.048 150.672C296.763 152.074 296.49 153.496 296.235 154.911C296.157 155.341 295.747 155.628 295.316 155.553L294.67 155.44C294.665 155.439 294.66 155.434 294.66 155.429ZM296.008 220.401C295.923 220.008 296.174 219.622 296.566 219.538C296.961 219.454 297.349 219.705 297.434 220.099C297.743 221.523 298.075 222.949 298.414 224.355C298.509 224.744 298.273 225.137 297.884 225.236C297.492 225.336 297.093 225.097 296.997 224.704C296.65 223.28 296.318 221.837 296.008 220.401ZM297.769 144.093C297.379 143.997 297.141 143.603 297.238 143.214C297.596 141.787 297.971 140.356 298.365 138.941C298.474 138.552 298.88 138.326 299.268 138.438C299.654 138.549 299.878 138.951 299.771 139.339C299.382 140.735 299.003 142.151 298.651 143.56C298.554 143.95 298.159 144.19 297.769 144.093ZM298.694 231.11C298.694 231.105 298.698 231.1 298.703 231.098L299.296 230.928C299.738 230.8 300.2 231.056 300.329 231.497C300.727 232.857 301.147 234.224 301.58 235.578C301.703 235.962 301.494 236.373 301.112 236.5C300.726 236.626 300.311 236.415 300.187 236.029C299.667 234.401 299.16 232.753 298.695 231.113C298.694 231.112 298.694 231.111 298.694 231.11ZM300.269 132.619C300.27 132.618 300.271 132.617 300.271 132.616C300.795 130.993 301.351 129.346 301.926 127.732C302.062 127.352 302.481 127.156 302.86 127.295C303.238 127.433 303.432 127.851 303.297 128.229C302.785 129.658 302.294 131.108 301.823 132.549C301.728 132.84 301.416 133 301.125 132.906L300.273 132.633C300.267 132.631 300.265 132.623 300.269 132.619ZM302.326 242.28C302.326 242.281 302.327 242.282 302.328 242.282L303.131 241.987C303.443 241.873 303.788 242.033 303.902 242.345C304.421 243.75 304.963 245.153 305.514 246.539C305.662 246.912 305.482 247.335 305.111 247.485C304.738 247.636 304.313 247.455 304.164 247.082C303.532 245.492 302.918 243.882 302.329 242.28C302.328 242.278 302.326 242.278 302.326 242.28ZM304.272 121.537C304.272 121.535 304.272 121.534 304.273 121.532C304.909 119.95 305.579 118.351 306.268 116.786C306.431 116.414 306.867 116.248 307.238 116.414C307.606 116.579 307.772 117.011 307.61 117.381C307.045 118.673 306.489 119.976 305.958 121.28C305.776 121.727 305.267 121.945 304.819 121.765L304.28 121.548C304.275 121.547 304.272 121.542 304.272 121.537ZM307.016 253.824C306.85 253.456 307.016 253.025 307.384 252.86C307.754 252.693 308.189 252.86 308.356 253.23C308.95 254.55 309.571 255.868 310.196 257.17C310.371 257.534 310.22 257.97 309.858 258.148C309.493 258.326 309.053 258.174 308.877 257.809C308.244 256.495 307.619 255.163 307.016 253.824ZM309.689 111.088C309.327 110.911 309.176 110.474 309.353 110.112C309.999 108.792 310.673 107.471 311.355 106.17C311.544 105.811 311.988 105.675 312.346 105.865C312.703 106.054 312.839 106.497 312.652 106.855C311.979 108.142 311.315 109.445 310.673 110.751C310.493 111.115 310.054 111.266 309.689 111.088ZM311.86 263.696C311.86 263.696 311.861 263.696 311.862 263.695L312.118 263.558C312.684 263.255 313.389 263.469 313.695 264.034C314.319 265.186 314.957 266.33 315.6 267.462C315.798 267.811 315.679 268.255 315.332 268.456C314.982 268.659 314.535 268.539 314.335 268.188C313.493 266.713 312.661 265.209 311.855 263.704C311.853 263.701 311.855 263.696 311.86 263.696ZM315.176 100.736C314.828 100.535 314.71 100.09 314.912 99.7422C315.653 98.4703 316.412 97.1961 317.184 95.9426C317.396 95.5988 317.847 95.4944 318.189 95.7084C318.531 95.9221 318.635 96.3725 318.423 96.7156C317.66 97.9505 316.906 99.2113 316.173 100.471C315.971 100.819 315.525 100.938 315.176 100.736ZM318.109 274.471C317.894 274.129 317.998 273.679 318.341 273.465C318.683 273.251 319.134 273.355 319.35 273.697C320.122 274.922 320.916 276.149 321.719 277.35C321.942 277.684 321.855 278.136 321.523 278.362C321.189 278.588 320.735 278.5 320.511 278.165C319.697 276.947 318.892 275.713 318.109 274.471ZM321.356 90.7976C321.024 90.5724 320.936 90.1207 321.162 89.7885C321.985 88.5757 322.831 87.3605 323.685 86.166C323.921 85.8358 324.381 85.7625 324.71 86.0012C325.036 86.2385 325.109 86.6948 324.874 87.0229C324.028 88.2044 323.187 89.402 322.371 90.6018C322.144 90.9357 321.69 91.0241 321.356 90.7976ZM324.71 284.163C324.471 283.837 324.543 283.379 324.87 283.141C325.197 282.903 325.655 282.976 325.894 283.302C326.749 284.469 327.63 285.638 328.515 286.781C328.762 287.1 328.707 287.559 328.39 287.808C328.071 288.058 327.609 288.002 327.361 287.681C326.467 286.522 325.58 285.346 324.71 284.163ZM328.22 81.3163C327.904 81.0677 327.848 80.6101 328.096 80.2937C329.003 79.1402 329.936 77.9897 330.867 76.8608C331.124 76.549 331.586 76.5072 331.896 76.7667C332.204 77.025 332.245 77.4842 331.988 77.794C331.063 78.9097 330.147 80.0428 329.253 81.189C329.003 81.5095 328.54 81.5674 328.22 81.3163ZM331.497 292.828C331.497 292.824 331.499 292.821 331.502 292.818L331.853 292.524C332.275 292.171 332.903 292.227 333.258 292.646C334.139 293.686 335.039 294.718 335.946 295.736C336.215 296.037 336.191 296.499 335.891 296.77C335.59 297.042 335.126 297.018 334.856 296.715C333.719 295.44 332.593 294.143 331.5 292.837C331.498 292.834 331.497 292.831 331.497 292.828ZM335.713 72.3451C335.414 72.075 335.39 71.6136 335.66 71.3148C336.645 70.2271 337.646 69.1432 338.655 68.0862C338.935 67.7937 339.398 67.7853 339.69 68.0656C339.981 68.3459 339.99 68.8091 339.712 69.1019C338.713 70.151 337.719 71.2169 336.75 72.2903C336.479 72.5915 336.014 72.6168 335.713 72.3451ZM339.347 301.56C339.341 301.554 339.341 301.544 339.347 301.538L339.868 301.038C340.157 300.76 340.616 300.768 340.896 301.056C341.906 302.094 342.939 303.13 343.98 304.15C344.268 304.432 344.277 304.893 343.998 305.184C343.718 305.477 343.252 305.487 342.961 305.203C341.738 304.01 340.526 302.781 339.347 301.56ZM343.316 63.4021C343.31 63.3961 343.31 63.3864 343.316 63.3805C344.529 62.2012 345.784 61.022 347.044 59.8718C347.344 59.5982 347.809 59.6225 348.08 59.9246C348.349 60.2249 348.325 60.6863 348.027 60.9584C347.135 61.774 346.248 62.6044 345.375 63.4391C344.794 63.9941 343.874 63.9799 343.316 63.4021ZM348.315 310.197C348.015 309.928 347.991 309.466 348.261 309.166C348.532 308.863 348.997 308.839 349.299 309.11C350.38 310.079 351.482 311.039 352.581 311.977C352.886 312.238 352.927 312.696 352.67 313.005C352.41 313.317 351.946 313.358 351.636 313.095C350.52 312.147 349.407 311.176 348.315 310.197ZM352.012 55.5151C352.009 55.5151 352.008 55.5112 352.01 55.5092C353.31 54.4141 354.636 53.3273 355.971 52.2634C356.289 52.0107 356.751 52.0664 357 52.3862C357.249 52.7045 357.192 53.1638 356.875 53.4144C355.81 54.2576 354.751 55.1243 353.712 55.9956C353.291 56.3487 352.662 56.2942 352.31 55.8716L352.015 55.5164C352.014 55.5156 352.013 55.5151 352.012 55.5151ZM357.332 317.719C357.012 317.471 356.956 317.01 357.205 316.691C357.454 316.371 357.916 316.315 358.236 316.563C359.381 317.45 360.542 318.33 361.711 319.192C362.036 319.432 362.108 319.889 361.872 320.217C361.634 320.546 361.173 320.62 360.846 320.379C359.665 319.512 358.488 318.617 357.332 317.719ZM361.211 48.2711C361.212 48.2715 361.212 48.2715 361.213 48.2712C362.59 47.261 363.992 46.2674 365.391 45.305C365.724 45.0756 366.18 45.1633 366.406 45.4988C366.63 45.8318 366.543 46.2833 366.212 46.5105C364.852 47.4435 363.488 48.4065 362.148 49.3858C362.099 49.4211 362.031 49.4104 361.996 49.3618L361.21 48.2726C361.209 48.2714 361.21 48.2701 361.211 48.2711ZM366.839 324.603C366.505 324.378 366.417 323.925 366.642 323.591C366.868 323.256 367.322 323.168 367.658 323.393C368.861 324.198 370.085 324.995 371.306 325.77C371.646 325.986 371.75 326.435 371.538 326.778C371.324 327.122 370.87 327.227 370.527 327.01C369.289 326.225 368.053 325.418 366.839 324.603ZM371.283 42.3115C371.071 41.9697 371.174 41.5204 371.515 41.3074C372.754 40.5344 374.015 39.7743 375.278 39.032C375.627 38.8269 376.076 38.9466 376.278 39.2975C376.478 39.6456 376.36 40.09 376.014 40.2939C374.769 41.0273 373.523 41.7828 372.296 42.5467C371.951 42.7614 371.497 42.6566 371.283 42.3115ZM376.184 330.439C376.184 330.436 376.184 330.434 376.185 330.432L376.337 330.169C376.654 329.618 377.359 329.429 377.912 329.745C379.052 330.395 380.204 331.035 381.358 331.66C381.713 331.852 381.848 332.294 381.66 332.651C381.47 333.011 381.023 333.149 380.665 332.955C379.164 332.147 377.661 331.307 376.19 330.45C376.186 330.448 376.184 330.443 376.184 330.439ZM381.032 35.813C381.027 35.8081 381.028 35.7999 381.034 35.7966C382.523 34.9978 384.044 34.2074 385.569 33.4542C385.934 33.2744 386.374 33.4268 386.552 33.7922C386.729 34.1563 386.578 34.5948 386.216 34.7752C385.085 35.3379 383.954 35.9175 382.839 36.5047C382.219 36.8314 381.45 36.5986 381.121 35.9801L381.034 35.8155C381.033 35.8146 381.033 35.8137 381.032 35.813ZM386.544 335.966C386.545 335.966 386.546 335.965 386.546 335.965L386.792 335.459C387.01 335.01 387.55 334.824 388 335.04C389.257 335.646 390.531 336.239 391.792 336.81C392.161 336.977 392.327 337.411 392.162 337.78C391.996 338.152 391.561 338.318 391.191 338.15C389.641 337.448 388.079 336.722 386.543 335.97C386.541 335.969 386.542 335.966 386.544 335.966ZM391.514 30.6298C391.514 30.6311 391.515 30.6319 391.517 30.6314C393.066 29.9352 394.64 29.2556 396.211 28.6074C396.583 28.4536 397.009 28.6325 397.162 29.0053C397.315 29.3795 397.135 29.8069 396.761 29.9612C395.29 30.5683 393.808 31.209 392.348 31.8585C392.217 31.9163 392.065 31.8579 392.007 31.7279L391.517 30.6291C391.517 30.6274 391.514 30.6279 391.514 30.6298ZM397.275 340.755C397.276 340.755 397.277 340.754 397.277 340.754L397.495 340.206C397.674 339.757 398.185 339.54 398.634 339.72C399.938 340.241 401.256 340.746 402.571 341.233C402.95 341.373 403.145 341.793 403.007 342.172C402.869 342.552 402.448 342.748 402.069 342.608C400.47 342.018 398.86 341.396 397.275 340.758C397.273 340.758 397.273 340.755 397.275 340.755ZM402.354 26.2232C402.354 26.218 402.357 26.2133 402.362 26.2115C403.957 25.6307 405.576 25.0582 407.191 24.5232C407.576 24.3957 407.99 24.6065 408.116 24.9918C408.243 25.3778 408.032 25.7929 407.646 25.9209C406.435 26.323 405.222 26.7428 404.023 27.1741C403.378 27.4064 402.664 27.0756 402.429 26.4306L402.355 26.2275C402.354 26.2261 402.354 26.2246 402.354 26.2232ZM408.32 344.777C408.322 344.778 408.324 344.778 408.325 344.776L408.6 343.915C408.693 343.622 409.007 343.461 409.299 343.556C410.731 344.017 412.18 344.458 413.62 344.873C414.009 344.985 414.235 345.39 414.124 345.779C414.013 346.167 413.608 346.392 413.22 346.279C411.586 345.803 409.946 345.296 408.323 344.773C408.32 344.772 408.318 344.775 408.32 344.777ZM413.689 23.2735C413.578 22.8855 413.802 22.481 414.191 22.3711C415.598 21.9729 417.021 21.5838 418.434 21.2224C418.825 21.1225 419.222 21.36 419.32 21.7509C419.42 22.1433 419.182 22.5417 418.789 22.642C417.39 23.0003 415.982 23.3814 414.595 23.7761C414.206 23.8868 413.8 23.6624 413.689 23.2735ZM420.293 348.183C419.903 348.088 419.665 347.693 419.76 347.303C419.857 346.91 420.254 346.671 420.647 346.767C422.05 347.112 423.468 347.437 424.883 347.738C425.278 347.822 425.531 348.211 425.447 348.606C425.363 348.999 424.977 349.251 424.583 349.166C423.152 348.857 421.712 348.529 420.293 348.183ZM425.002 20.4381C424.918 20.0437 425.17 19.6558 425.564 19.5736C426.996 19.2754 428.442 18.991 429.88 18.7296C430.278 18.6573 430.658 18.924 430.727 19.3227C430.796 19.7194 430.531 20.097 430.135 20.169C428.71 20.4282 427.282 20.7056 425.869 21.0013C425.474 21.084 425.086 20.8327 425.002 20.4381ZM431.057 350.431C431.052 350.431 431.048 350.426 431.049 350.421L431.183 349.648C431.246 349.285 431.592 349.042 431.955 349.103C433.398 349.348 434.861 349.578 436.316 349.785C436.715 349.841 436.994 350.208 436.941 350.608C436.886 351.009 436.516 351.29 436.114 351.232C434.426 350.989 432.722 350.726 431.059 350.431C431.058 350.431 431.058 350.431 431.057 350.431ZM436.489 18.4004C436.432 17.9987 436.711 17.6267 437.113 17.5716C438.558 17.3738 440.018 17.1942 441.469 17.033C441.874 16.9881 442.237 17.2818 442.279 17.6865C442.321 18.0892 442.029 18.4499 441.627 18.495C440.192 18.6559 438.745 18.8342 437.316 19.0255C436.916 19.0792 436.546 18.8005 436.489 18.4004ZM442.648 352.045C442.732 351.238 443.455 350.651 444.263 350.727C445.457 350.838 446.659 350.937 447.854 351.023C448.258 351.052 448.563 351.401 448.536 351.805C448.509 352.209 448.159 352.514 447.756 352.485C446.055 352.361 444.349 352.207 442.659 352.035C442.653 352.035 442.648 352.039 442.648 352.045ZM448.036 16.4343C448.034 16.4364 448.036 16.4399 448.039 16.4397C449.729 16.3159 451.445 16.2254 453.149 16.1537C453.552 16.1367 453.892 16.4513 453.907 16.8544C453.922 17.2579 453.606 17.5967 453.203 17.6126C451.669 17.6731 450.12 17.7593 448.595 17.8604C448.343 17.8771 448.125 17.6867 448.108 17.4348L448.042 16.4364C448.041 16.4336 448.038 16.4324 448.036 16.4343ZM454.325 352.842C454.332 352.842 454.337 352.837 454.337 352.831L454.358 352.123C454.37 351.713 454.713 351.392 455.123 351.404C456.761 351.453 458.41 351.478 460.034 351.478C460.118 351.478 460.186 351.546 460.186 351.63L460.186 352.788C460.186 352.872 460.118 352.94 460.034 352.94C458.131 352.94 456.217 352.907 454.325 352.842ZM459.74 16.3193C459.74 16.1512 459.876 16.0149 460.045 16.0149C461.747 16.0149 463.465 16.0399 465.171 16.09C465.576 16.1018 465.893 16.4418 465.878 16.8464C465.863 17.2491 465.525 17.5636 465.122 17.5517C463.434 17.5016 461.727 17.4766 460.045 17.4766C459.876 17.4766 459.74 17.3403 459.74 17.1722L459.74 16.3193ZM466.03 352.102C466.015 351.698 466.332 351.358 466.736 351.342C468.184 351.285 469.635 351.205 471.077 351.112C471.481 351.086 471.831 351.391 471.858 351.795C471.885 352.198 471.58 352.547 471.176 352.573C469.72 352.667 468.248 352.747 466.785 352.804C466.383 352.82 466.045 352.505 466.03 352.102ZM472.387 17.9319C471.983 17.9023 471.678 17.5534 471.705 17.1499C471.732 16.746 472.082 16.4404 472.486 16.4696C473.945 16.5755 475.413 16.7043 476.861 16.8469C477.265 16.8867 477.559 17.2484 477.517 17.6525C477.475 18.0556 477.114 18.3484 476.711 18.3084C475.276 18.1662 473.827 18.0376 472.387 17.9319ZM477.593 350.551C477.593 350.557 477.598 350.561 477.604 350.561C479.271 350.389 480.963 350.185 482.63 349.955C483.031 349.899 483.402 350.178 483.459 350.578C483.516 350.979 483.237 351.35 482.836 351.405C481.632 351.569 480.418 351.721 479.207 351.856C478.399 351.947 477.677 351.359 477.593 350.551ZM483.929 19.196C483.528 19.1373 483.25 18.7661 483.307 18.3652C483.364 17.9647 483.734 17.6858 484.135 17.7439C485.587 17.9545 487.042 18.1834 488.475 18.4308C488.873 18.4993 489.138 18.878 489.069 19.2754C489 19.6738 488.621 19.9406 488.223 19.8732C486.802 19.633 485.362 19.4057 483.929 19.196ZM489.21 349.665C489.141 349.268 489.406 348.89 489.802 348.818C491.227 348.559 492.655 348.282 494.068 347.986C494.463 347.903 494.851 348.155 494.935 348.549C495.019 348.944 494.767 349.332 494.372 349.414C492.941 349.712 491.495 349.996 490.057 350.258C489.659 350.33 489.279 350.063 489.21 349.665ZM495.356 21.2522C494.961 21.1664 494.709 20.7784 494.794 20.3836C494.878 19.989 495.266 19.7369 495.66 19.8226C497.091 20.1334 498.53 20.4672 499.948 20.8148C500.339 20.9105 500.576 21.3048 500.481 21.6951C500.384 22.0879 499.987 22.3272 499.594 22.2308C498.19 21.8863 496.772 21.5601 495.356 21.2522ZM500.447 346.535C500.447 346.529 500.451 346.525 500.456 346.523C502.087 346.114 503.733 345.68 505.353 345.222C505.742 345.112 506.148 345.336 506.259 345.725C506.37 346.113 506.145 346.517 505.757 346.627C504.531 346.972 503.294 347.307 502.058 347.63C501.363 347.811 500.656 347.386 500.485 346.688L500.448 346.538C500.447 346.537 500.447 346.536 500.447 346.535ZM506.618 24.1169C506.23 24.0034 506.006 23.5986 506.117 23.2102C506.228 22.821 506.634 22.5955 507.023 22.7087C508.426 23.1174 509.833 23.5491 511.224 23.9946C511.608 24.1175 511.819 24.5284 511.696 24.9124C511.573 25.2994 511.158 25.5117 510.771 25.3876C509.393 24.9458 508.001 24.5222 506.618 24.1169ZM511.842 344.016C511.716 343.631 511.926 343.217 512.31 343.089C513.684 342.633 515.061 342.155 516.417 341.668C516.797 341.532 517.216 341.728 517.354 342.107C517.492 342.487 517.297 342.907 516.916 343.044C515.543 343.538 514.154 344.019 512.768 344.483C512.383 344.611 511.968 344.401 511.842 344.016ZM516.974 27.5257C516.974 27.5243 516.974 27.5228 516.975 27.5215L517.049 27.3176C517.283 26.6723 517.997 26.3391 518.641 26.5791C519.857 27.0325 521.076 27.5042 522.28 27.9908C522.654 28.1418 522.834 28.5667 522.684 28.9409C522.533 29.32 522.102 29.5033 521.723 29.3514C520.154 28.7219 518.564 28.1172 516.982 27.5374C516.977 27.5356 516.974 27.531 516.974 27.5257ZM522.528 339.335C522.524 339.331 522.525 339.323 522.531 339.321C524.083 338.694 525.642 338.026 527.174 337.346C527.545 337.181 527.981 337.347 528.146 337.719C528.311 338.088 528.146 338.522 527.776 338.686C526.59 339.213 525.391 339.729 524.194 340.228C523.577 340.485 522.871 340.185 522.621 339.565L522.53 339.338C522.53 339.337 522.529 339.336 522.528 339.335ZM528.437 32.2116C528.069 32.0435 527.904 31.6099 528.068 31.24C528.234 30.8684 528.67 30.7014 529.04 30.8692C530.377 31.4741 531.711 32.102 533.029 32.7437C533.392 32.9207 533.542 33.3589 533.366 33.7226C533.188 34.0882 532.747 34.2399 532.381 34.0629C531.076 33.4313 529.755 32.8127 528.437 32.2116ZM533.417 335.247C533.24 334.884 533.39 334.448 533.752 334.268C535.043 333.626 536.332 332.966 537.611 332.288C537.971 332.097 538.417 332.234 538.607 332.593C538.795 332.95 538.66 333.392 538.303 333.581C537.011 334.262 535.704 334.931 534.401 335.582C534.037 335.764 533.595 335.613 533.417 335.247ZM538.23 37.0282C538.23 37.0302 538.233 37.0308 538.233 37.0291L538.778 35.9963C538.854 35.8537 539.03 35.7994 539.173 35.8756C540.592 36.6365 542.016 37.4326 543.416 38.2334C543.764 38.4331 543.884 38.8782 543.684 39.2265C543.482 39.5764 543.035 39.6954 542.685 39.494C541.221 38.6514 539.723 37.8265 538.233 37.0265C538.231 37.0258 538.23 37.0267 538.23 37.0282ZM543.329 329.123C543.329 329.118 543.332 329.114 543.335 329.112C544.785 328.265 546.243 327.394 547.673 326.506C548.018 326.291 548.472 326.396 548.686 326.741C548.899 327.083 548.795 327.532 548.454 327.745C547.333 328.445 546.195 329.133 545.052 329.808C544.505 330.131 543.799 329.943 543.482 329.392L543.331 329.129C543.33 329.127 543.329 329.125 543.329 329.123ZM548.298 42.8757C548.298 42.8778 548.301 42.8786 548.302 42.8768L548.898 41.9162C548.993 41.7635 549.194 41.7169 549.346 41.8128C550.7 42.6661 552.053 43.5476 553.381 44.4391C553.715 44.6636 553.802 45.1166 553.578 45.4505C553.352 45.7855 552.897 45.8737 552.562 45.6487C551.158 44.7065 549.725 43.7694 548.301 42.874C548.3 42.8731 548.298 42.8741 548.298 42.8757ZM553.565 323.545C553.34 323.211 553.428 322.759 553.76 322.532C554.953 321.716 556.139 320.878 557.314 320.026C557.643 319.787 558.103 319.86 558.341 320.189C558.577 320.516 558.504 320.973 558.177 321.209C556.989 322.066 555.784 322.914 554.578 323.74C554.245 323.968 553.79 323.88 553.565 323.545ZM557.93 49.4281C557.931 49.4281 557.931 49.4276 557.932 49.4269L558.221 49.0266C558.535 48.592 559.142 48.4947 559.574 48.8133C560.688 49.637 561.795 50.4836 562.888 51.3336C563.207 51.5822 563.264 52.0429 563.014 52.362C562.765 52.6816 562.304 52.7382 561.984 52.4896C560.65 51.4536 559.293 50.4229 557.928 49.4336C557.925 49.4319 557.927 49.4281 557.93 49.4281ZM562.992 316.668C562.743 316.349 562.8 315.889 563.117 315.638C564.252 314.742 565.379 313.823 566.49 312.897C566.801 312.637 567.264 312.678 567.523 312.99C567.781 313.299 567.74 313.758 567.431 314.016C566.308 314.954 565.168 315.885 564.02 316.793C563.703 317.044 563.241 316.987 562.992 316.668ZM567.641 57.0862C567.335 56.8258 567.294 56.3673 567.551 56.0582C567.81 55.7468 568.273 55.7056 568.582 55.968C569.699 56.9166 570.812 57.8874 571.904 58.8667C572.204 59.136 572.228 59.5977 571.959 59.8981C571.688 60.2002 571.223 60.2244 570.921 59.9533C569.841 58.9846 568.745 58.0243 567.641 57.0862ZM571.435 308.602C571.435 308.598 571.436 308.595 571.439 308.592C572.691 307.46 573.935 306.302 575.156 305.134C575.449 304.854 575.914 304.864 576.194 305.157C576.472 305.448 576.463 305.91 576.172 306.188C575.193 307.127 574.199 308.064 573.198 308.983C572.766 309.379 572.096 309.344 571.705 308.908L571.438 308.611C571.436 308.608 571.435 308.605 571.435 308.602ZM575.708 64.4057C575.714 64.4117 575.724 64.4116 575.729 64.4055L576.228 63.8835C576.505 63.5943 576.964 63.5857 577.25 63.8654C578.296 64.8889 579.344 65.9347 580.366 66.9889C580.647 67.2787 580.637 67.7411 580.346 68.0209C580.055 68.3014 579.591 68.2918 579.309 68.0009C578.132 66.7838 576.924 65.5781 575.708 64.4057ZM579.784 300.502C579.785 300.502 579.786 300.501 579.786 300.501C580.953 299.282 582.121 298.038 583.252 296.784C583.523 296.483 583.988 296.458 584.289 296.73C584.588 297 584.612 297.461 584.341 297.76C583.286 298.924 582.21 300.079 581.12 301.214C580.959 301.381 580.694 301.386 580.526 301.225L579.781 300.508C579.779 300.506 579.78 300.502 579.784 300.502ZM584.271 73.3506C584.003 73.0485 584.028 72.5871 584.328 72.3166C584.629 72.0445 585.094 72.0686 585.364 72.3718C586.34 73.4673 587.306 74.5842 588.245 75.7042C588.504 76.0128 588.462 76.4724 588.153 76.731C587.843 76.9908 587.381 76.9496 587.12 76.6405C586.186 75.5332 585.23 74.4335 584.271 73.3506ZM587.57 291.845C587.57 291.842 587.571 291.839 587.573 291.837C588.655 290.542 589.728 289.214 590.779 287.889C591.031 287.571 591.492 287.516 591.811 287.767C592.129 288.017 592.186 288.477 591.936 288.795C591.085 289.88 590.213 290.962 589.329 292.027C588.977 292.45 588.349 292.504 587.927 292.151L587.575 291.855C587.572 291.853 587.57 291.849 587.57 291.845ZM591.702 82.3053C591.456 81.9858 591.512 81.5275 591.829 81.2784C592.148 81.0274 592.611 81.084 592.859 81.4059C593.752 82.5652 594.637 83.745 595.5 84.9226C595.738 85.2488 595.666 85.7067 595.339 85.9445C595.012 86.1826 594.553 86.1097 594.314 85.783C593.461 84.6169 592.585 83.4531 591.702 82.3053ZM594.733 282.655C594.734 282.655 594.735 282.655 594.736 282.654C595.733 281.282 596.714 279.884 597.664 278.484C597.89 278.15 598.345 278.061 598.679 278.288C599.011 278.513 599.099 278.965 598.873 279.297C597.979 280.614 597.057 281.934 596.12 283.226C596.004 283.387 595.779 283.422 595.619 283.306L594.732 282.661C594.729 282.659 594.731 282.655 594.733 282.655ZM598.082 91.1428C598.083 91.1428 598.084 91.1425 598.085 91.142L598.367 90.9511C598.877 90.6054 599.57 90.7395 599.911 91.2527C600.651 92.3672 601.382 93.4973 602.09 94.6255C602.305 94.9671 602.2 95.4174 601.858 95.6311C601.515 95.8453 601.063 95.7409 600.848 95.3989C599.947 93.9704 599.017 92.5398 598.078 91.1506C598.076 91.1473 598.078 91.1428 598.082 91.1428ZM601.868 273.378C601.525 273.164 601.421 272.713 601.634 272.369C602.396 271.137 603.151 269.883 603.883 268.626C604.085 268.278 604.532 268.158 604.88 268.36C605.228 268.562 605.347 269.007 605.144 269.354C604.403 270.625 603.645 271.898 602.873 273.145C602.661 273.488 602.21 273.592 601.868 273.378ZM604.236 101.004C604.237 101.004 604.238 101.004 604.239 101.004L604.504 100.85C605.053 100.532 605.756 100.72 606.069 101.272C606.721 102.422 607.365 103.591 607.991 104.754C608.182 105.111 608.047 105.554 607.69 105.744C607.332 105.934 606.889 105.798 606.698 105.442C605.902 103.956 605.075 102.468 604.232 101.012C604.229 101.009 604.232 101.004 604.236 101.004ZM607.712 263.232C607.355 263.043 607.219 262.599 607.408 262.241C608.085 260.954 608.744 259.651 609.384 258.346C609.563 257.982 610.003 257.83 610.367 258.008C610.729 258.186 610.881 258.623 610.703 258.985C610.057 260.305 609.383 261.627 608.7 262.928C608.512 263.286 608.069 263.422 607.712 263.232ZM610.004 111.927C609.829 111.563 609.979 111.125 610.342 110.948C610.705 110.77 611.144 110.921 611.32 111.286C611.953 112.601 612.577 113.937 613.18 115.271C613.346 115.639 613.181 116.072 612.812 116.238C612.442 116.403 612.008 116.238 611.842 115.868C611.249 114.553 610.634 113.23 610.004 111.927ZM612.175 252.386C612.175 252.388 612.177 252.389 612.178 252.387C612.861 250.845 613.536 249.269 614.174 247.697C614.326 247.322 614.752 247.139 615.127 247.29C615.502 247.44 615.684 247.866 615.532 248.24C614.958 249.65 614.359 251.068 613.746 252.457C613.618 252.748 613.276 252.878 612.986 252.748L612.177 252.385C612.176 252.384 612.175 252.385 612.175 252.386ZM614.677 122.564C614.527 122.188 614.709 121.761 615.085 121.61C615.459 121.46 615.885 121.641 616.034 122.017C616.577 123.382 617.106 124.764 617.612 126.142C617.751 126.519 617.556 126.937 617.178 127.075C616.799 127.214 616.379 127.019 616.24 126.64C615.737 125.277 615.216 123.915 614.677 122.564ZM616.535 241.554C616.535 241.555 616.537 241.556 616.538 241.554C617.117 239.963 617.671 238.346 618.201 236.727C618.326 236.343 618.738 236.132 619.122 236.255C619.507 236.379 619.719 236.791 619.593 237.174C619.123 238.619 618.627 240.066 618.11 241.49C617.997 241.801 617.653 241.961 617.342 241.847L616.537 241.552C616.536 241.552 616.535 241.553 616.535 241.554ZM618.391 132.828C618.389 132.83 618.391 132.833 618.394 132.832L619.505 132.466C619.654 132.417 619.814 132.499 619.862 132.648C620.355 134.184 620.832 135.741 621.288 137.295C621.402 137.681 621.179 138.086 620.791 138.197C620.404 138.309 620 138.085 619.888 137.698C619.415 136.068 618.918 134.44 618.395 132.829C618.395 132.827 618.392 132.826 618.391 132.828ZM620.823 230.659C620.436 230.547 620.213 230.144 620.322 229.757C620.715 228.36 621.09 226.943 621.446 225.534C621.545 225.144 621.939 224.906 622.329 225.003C622.72 225.099 622.959 225.494 622.861 225.884C622.502 227.312 622.119 228.742 621.724 230.157C621.615 230.546 621.21 230.77 620.823 230.659ZM621.754 144.736C621.659 144.345 621.897 143.95 622.287 143.853C622.677 143.757 623.071 143.995 623.166 144.385C623.514 145.811 623.847 147.257 624.157 148.696C624.242 149.088 623.991 149.474 623.599 149.558C623.204 149.643 622.817 149.391 622.732 148.997C622.424 147.574 622.098 146.147 621.754 144.736ZM622.917 219.135C622.917 219.137 622.919 219.137 622.919 219.136C623.282 217.432 623.618 215.694 623.92 213.968C623.973 213.665 624.262 213.461 624.565 213.514L624.734 213.544C625.129 213.613 625.394 213.99 625.323 214.385C625.059 215.856 624.776 217.336 624.474 218.801C624.402 219.153 624.055 219.378 623.703 219.303L622.918 219.134C622.918 219.134 622.917 219.135 622.917 219.135ZM624.115 156.145C624.048 155.748 624.314 155.372 624.71 155.302C625.107 155.233 625.485 155.498 625.553 155.896C625.8 157.343 626.029 158.805 626.239 160.259C626.297 160.657 626.019 161.026 625.62 161.083C625.22 161.141 624.85 160.863 624.792 160.463C624.582 159.023 624.355 157.579 624.115 156.145ZM624.918 207.658C625.145 205.991 625.357 204.291 625.537 202.608C625.58 202.204 625.941 201.911 626.344 201.953C626.746 201.995 627.038 202.354 626.995 202.755C626.842 204.201 626.665 205.656 626.47 207.096C626.412 207.522 626.019 207.819 625.593 207.761L624.928 207.671C624.922 207.67 624.918 207.664 624.918 207.658ZM625.603 166.969C626.408 166.885 627.13 167.468 627.207 168.274C627.323 169.492 627.425 170.721 627.517 171.944C627.547 172.347 627.243 172.696 626.84 172.723C626.439 172.75 626.092 172.447 626.063 172.046C625.939 170.356 625.785 168.656 625.615 166.98C625.614 166.974 625.609 166.969 625.603 166.969ZM626.103 196.073C626.109 196.073 626.114 196.068 626.114 196.062C626.228 194.387 626.317 192.678 626.381 190.979C626.396 190.576 626.735 190.26 627.138 190.275C627.54 190.29 627.853 190.627 627.838 191.028C627.792 192.256 627.733 193.489 627.657 194.714C627.608 195.521 626.909 196.128 626.103 196.073ZM626.43 179.323C626.418 178.922 626.732 178.585 627.133 178.57C627.536 178.555 627.875 178.871 627.887 179.274C627.93 180.739 627.954 182.223 627.96 183.694C627.962 184.097 627.636 184.423 627.233 184.423C626.831 184.423 626.505 184.097 626.503 183.694C626.497 182.237 626.473 180.775 626.43 179.323Z" fill="#8DA0D0"/>
<path d="M277.198 184.456C277.198 159.682 282.037 135.65 291.572 113.026C300.781 91.1757 313.97 71.551 330.768 54.6971C347.566 37.8433 367.126 24.6111 388.904 15.3714C411.454 5.80454 435.406 0.950186 460.098 0.950187C484.79 0.950188 508.742 5.80454 531.292 15.3714C553.07 24.6111 572.63 37.8433 589.428 54.6971C606.227 71.551 619.415 91.1757 628.624 113.026C638.16 135.65 642.998 159.682 642.998 184.456C642.998 209.229 638.16 233.261 628.624 255.886C619.415 277.736 606.227 297.36 589.428 314.214C572.63 331.068 553.07 344.3 531.292 353.54C508.742 363.107 484.79 367.961 460.098 367.961C435.406 367.961 411.454 363.107 388.904 353.54C367.126 344.3 347.566 331.068 330.768 314.214C313.97 297.36 300.781 277.736 291.572 255.886C282.037 233.261 277.198 209.229 277.198 184.456ZM641.041 184.456C641.041 159.944 636.257 136.174 626.82 113.789C617.708 92.1684 604.661 72.751 588.037 56.0826C571.423 39.4141 552.07 26.3237 530.52 17.1714C508.21 7.70265 484.518 2.90284 460.087 2.90284C435.656 2.90284 411.965 7.70264 389.654 17.1714C368.104 26.3128 348.751 39.4032 332.138 56.0825C315.524 72.751 302.477 92.1684 293.355 113.789C283.917 136.174 279.134 159.944 279.134 184.456C279.134 208.967 283.917 232.737 293.355 255.122C302.466 276.743 315.513 296.16 332.138 312.829C348.751 329.497 368.104 342.588 389.654 351.74C411.965 361.209 435.656 366.008 460.087 366.008C484.518 366.008 508.21 361.209 530.52 351.74C552.07 342.598 571.423 329.508 588.037 312.829C604.65 296.16 617.697 276.743 626.82 255.122C636.257 232.737 641.041 208.967 641.041 184.456Z" fill="#8DA0D0"/>
<path d="M581.601 184.456C581.601 144.879 596.964 107.67 624.863 79.678C652.762 51.6864 689.849 36.2725 729.295 36.2725C768.741 36.2725 805.828 51.6864 833.727 79.678C861.626 107.67 876.989 144.879 876.989 184.456C876.989 224.032 861.626 261.242 833.727 289.233C805.828 317.225 768.741 332.639 729.295 332.639C689.849 332.639 652.762 317.225 624.863 289.233C596.964 261.242 581.601 224.032 581.601 184.456ZM875.521 184.456C875.521 145.272 860.311 108.422 832.694 80.7143C805.077 53.0063 768.35 37.7451 729.295 37.7451C690.24 37.7451 653.513 53.0063 625.896 80.7143C598.279 108.422 583.069 145.272 583.069 184.456C583.069 223.64 598.279 260.489 625.896 288.197C653.513 315.905 690.24 331.166 729.295 331.166C768.35 331.166 805.077 315.905 832.694 288.197C860.311 260.489 875.521 223.64 875.521 184.456Z" fill="#8DA0D0"/>
<path d="M64.8986 184.456C64.8986 144.879 80.2617 107.67 108.161 79.678C136.06 51.6864 173.147 36.2725 212.593 36.2725C252.039 36.2725 289.126 51.6864 317.025 79.678C344.924 107.67 360.287 144.879 360.287 184.456C360.287 224.032 344.924 261.242 317.025 289.233C289.126 317.225 252.039 332.639 212.593 332.639C173.147 332.639 136.06 317.225 108.161 289.233C80.2617 261.242 64.8986 224.032 64.8986 184.456ZM358.819 184.456C358.819 145.272 343.608 108.422 315.992 80.7143C288.375 53.0063 251.648 37.7451 212.593 37.7451C173.538 37.7451 136.81 53.0063 109.194 80.7143C81.5773 108.422 66.3665 145.272 66.3665 184.456C66.3665 223.64 81.5773 260.489 109.194 288.197C136.81 315.905 173.538 331.166 212.593 331.166C251.647 331.166 288.375 315.905 315.992 288.197C343.608 260.489 358.819 223.64 358.819 184.456Z" fill="#8DA0D0"/>
<path d="M816.45 184.456C816.45 167.678 830.051 154.021 846.784 154.021C863.517 154.021 877.119 167.667 877.119 184.456C877.119 201.244 863.517 214.891 846.784 214.891C830.051 214.891 816.45 201.244 816.45 184.456ZM875.651 184.456C875.651 168.485 862.702 155.493 846.784 155.493C830.867 155.493 817.917 168.485 817.917 184.456C817.917 200.426 830.867 213.418 846.784 213.418C862.702 213.418 875.651 200.426 875.651 184.456Z" fill="#8DA0D0"/>
<path d="M862.67 184.456C862.67 176.863 868.824 170.689 876.391 170.689C883.958 170.689 890.112 176.863 890.112 184.456C890.112 192.048 883.958 198.222 876.391 198.222C868.824 198.222 862.67 192.048 862.67 184.456ZM888.655 184.456C888.655 177.671 883.154 172.151 876.391 172.151C869.628 172.151 864.127 177.671 864.127 184.456C864.127 191.241 869.628 196.761 876.391 196.761C883.154 196.761 888.655 191.241 888.655 184.456Z" fill="#8DA0D0"/>
<path d="M950.868 184.958L950.868 183.976L5.90338 183.976L5.90338 184.958L950.868 184.958Z" fill="#8DA0D0"/>
<path d="M949.716 179.656C952.358 179.656 954.5 181.805 954.5 184.456C954.5 187.107 952.358 189.256 949.716 189.256C947.074 189.256 944.932 187.107 944.932 184.456C944.932 181.805 947.074 179.656 949.716 179.656Z" fill="#8DA0D0"/>
<path d="M5.28436 179.656C7.92642 179.656 10.0684 181.805 10.0684 184.456C10.0684 187.107 7.92642 189.256 5.28436 189.256C2.6423 189.256 0.50043 187.107 0.50043 184.456C0.50043 181.805 2.6423 179.656 5.28436 179.656Z" fill="#8DA0D0"/>
</g>
<defs>
<clipPath id="clip0_733_8780">
<rect width="367" height="954" fill="white" transform="translate(954.5 0.961182) rotate(90)"/>
</clipPath>
</defs>
</svg>
