<svg width="46" height="36" viewBox="0 0 46 36" fill="none" xmlns="http://www.w3.org/2000/svg">
<g clip-path="url(#clip0_18_7696)">
<path d="M41.5018 13.6337C35.6579 11.1606 31.3927 6.10195 30.1884 0C28.988 6.10195 24.7228 11.1606 18.875 13.6337C17.7363 14.114 14.907 14.8571 14.907 14.8571C14.907 14.8571 17.7402 15.5964 18.875 16.0805C24.7189 18.5535 28.9841 23.6122 30.1884 29.7142C31.3889 23.6122 35.6541 18.5535 41.5018 16.0805C42.6405 15.6001 45.4698 14.8571 45.4698 14.8571C45.4698 14.8571 42.6367 14.1178 41.5018 13.6337Z" fill="url(#paint0_linear_18_7696)"/>
<path d="M17.3658 26.4682C13.8996 25.0008 11.3713 22.0024 10.6572 18.3848C9.94315 22.0024 7.4149 25.0008 3.9487 26.4682C3.27321 26.7534 1.59415 27.1924 1.59415 27.1924C1.59415 27.1924 3.27321 27.6315 3.9487 27.9167C7.4149 29.384 9.94315 32.3825 10.6572 36.0001C11.3713 32.3825 13.8996 29.384 17.3658 27.9167C18.0413 27.6315 19.7203 27.1924 19.7203 27.1924C19.7203 27.1924 18.0413 26.7534 17.3658 26.4682Z" fill="url(#paint1_linear_18_7696)"/>
<path d="M44.8522 27.1923C44.8522 28.0517 44.1381 28.7459 43.2542 28.7459C42.3703 28.7459 41.6562 28.0517 41.6562 27.1923C41.6562 26.3329 42.3703 25.6387 43.2542 25.6387C44.1381 25.6387 44.8522 26.3329 44.8522 27.1923Z" fill="url(#paint2_linear_18_7696)"/>
<path d="M15.4898 5.81291C15.4898 6.67229 14.7758 7.36654 13.8918 7.36654C13.0079 7.36654 12.2938 6.67229 12.2938 5.81291C12.2938 4.95353 13.0079 4.25928 13.8918 4.25928C14.7758 4.25928 15.4898 4.95353 15.4898 5.81291Z" fill="url(#paint3_linear_18_7696)"/>
<path d="M1.59801 16.4107C2.48056 16.4107 3.19601 15.7151 3.19601 14.8571C3.19601 13.9991 2.48056 13.3035 1.59801 13.3035C0.715451 13.3035 0 13.9991 0 14.8571C0 15.7151 0.715451 16.4107 1.59801 16.4107Z" fill="url(#paint4_linear_18_7696)"/>
</g>
<defs>
<linearGradient id="paint0_linear_18_7696" x1="18.0532" y1="3.05881" x2="41.1129" y2="30.3573" gradientUnits="userSpaceOnUse">
<stop stop-color="#404065"/>
<stop offset="1" stop-color="#0085FF"/>
</linearGradient>
<linearGradient id="paint1_linear_18_7696" x1="3.46008" y1="20.1981" x2="17.1295" y2="36.3871" gradientUnits="userSpaceOnUse">
<stop stop-color="#404065"/>
<stop offset="1" stop-color="#0085FF"/>
</linearGradient>
<linearGradient id="paint2_linear_18_7696" x1="41.9852" y1="25.9585" x2="44.3966" y2="28.8132" gradientUnits="userSpaceOnUse">
<stop stop-color="#404065"/>
<stop offset="1" stop-color="#0085FF"/>
</linearGradient>
<linearGradient id="paint3_linear_18_7696" x1="12.6228" y1="4.57914" x2="15.0342" y2="7.43379" gradientUnits="userSpaceOnUse">
<stop stop-color="#404065"/>
<stop offset="1" stop-color="#0085FF"/>
</linearGradient>
<linearGradient id="paint4_linear_18_7696" x1="0.329001" y1="13.6233" x2="2.7404" y2="16.478" gradientUnits="userSpaceOnUse">
<stop stop-color="#404065"/>
<stop offset="1" stop-color="#0085FF"/>
</linearGradient>
<clipPath id="clip0_18_7696">
<rect width="45.4737" height="36" fill="white"/>
</clipPath>
</defs>
</svg>
