<svg width="343" height="291" viewBox="0 0 343 291" fill="none" xmlns="http://www.w3.org/2000/svg">
<g clip-path="url(#clip0_18_7601)">
<path d="M297.468 12.9011C298.445 6.82738 294.31 1.11232 288.233 0.1362C282.156 -0.839919 276.437 3.29254 275.461 9.36629C274.484 15.44 278.619 21.1551 284.696 22.1312C290.773 23.1073 296.491 18.9749 297.468 12.9011Z" fill="url(#paint0_linear_18_7601)"/>
<path d="M291.224 47.0113C293.665 45.1395 294.125 41.6445 292.253 39.2051C290.38 36.7657 286.883 36.3056 284.442 38.1774C282.001 40.0492 281.541 43.5442 283.414 45.9836C285.287 48.423 288.784 48.8831 291.224 47.0113Z" fill="url(#paint1_linear_18_7601)"/>
<path d="M332.06 63.7558C331.259 63.7558 330.447 63.6664 329.634 63.4839C323.755 62.147 320.055 56.2816 321.392 50.4014C322.041 47.5525 323.758 45.1281 326.229 43.5715C328.699 42.0148 331.632 41.5158 334.478 42.1638C340.358 43.5007 344.058 49.3661 342.721 55.2464C341.569 60.3111 337.049 63.7558 332.056 63.7558H332.06ZM329.906 62.2923C332.436 62.8658 335.041 62.4226 337.236 61.041C339.43 59.6594 340.958 57.5031 341.532 54.9745C342.106 52.4459 341.662 49.8428 340.28 47.6493C338.898 45.4559 336.74 43.929 334.21 43.3555C331.68 42.7783 329.076 43.2252 326.881 44.6068C324.686 45.9884 323.158 48.1446 322.585 50.6732C321.396 55.8944 324.682 61.108 329.906 62.296V62.2923Z" fill="url(#paint2_linear_18_7601)"/>
<path d="M28.6183 285.645C35.1649 279.102 35.1649 268.494 28.6182 261.951C22.0716 255.408 11.4573 255.408 4.91067 261.951C-1.63599 268.494 -1.636 279.102 4.91067 285.645C11.4573 292.188 22.0716 292.188 28.6183 285.645Z" fill="url(#paint3_linear_18_7601)"/>
<path d="M300.373 142.217C300.373 151.539 299.457 160.648 297.709 169.459C296.103 177.562 293.793 185.416 290.846 192.95C289.571 196.209 288.178 199.408 286.669 202.543C286.609 202.666 286.549 202.789 286.49 202.912C263.917 249.488 216.171 281.601 160.912 281.601C101.171 281.601 50.2019 244.059 30.3417 191.289C29.4587 188.947 28.6389 186.575 27.8825 184.173C27.1634 181.897 26.5038 179.599 25.9039 177.276C24.5104 171.906 23.4298 166.409 22.6846 160.808C22.1592 156.901 21.8015 152.946 21.6115 148.947C21.5034 146.716 21.4512 144.474 21.4512 142.217C21.4512 140.121 21.4959 138.039 21.5891 135.968C21.7232 132.945 21.9505 129.947 22.2747 126.979C22.8932 121.288 23.8546 115.706 25.1401 110.243C25.3599 109.304 25.5909 108.37 25.8294 107.439C25.8294 107.435 25.8294 107.435 25.8294 107.431C41.2891 47.2842 95.9065 2.83398 160.912 2.83398C216.938 2.83398 265.247 35.8513 287.421 83.4818C288.629 86.0738 289.761 88.7104 290.808 91.388C292.835 96.557 294.561 101.875 295.962 107.323C298.842 118.477 300.373 130.166 300.373 142.217Z" fill="url(#paint4_linear_18_7601)"/>
<path d="M102.058 125.433C117.593 125.433 130.187 112.847 130.187 97.3206C130.187 81.7943 117.593 69.2078 102.058 69.2078C86.5233 69.2078 73.9298 81.7943 73.9298 97.3206C73.9298 112.847 86.5233 125.433 102.058 125.433Z" fill="url(#paint5_linear_18_7601)"/>
<path d="M300.112 142.218C300.135 149.926 299.52 157.635 298.246 165.236C298.041 166.469 297.754 167.805 296.778 168.584C295.824 169.343 294.49 169.34 293.268 169.302C204.627 166.517 115.986 163.735 27.3459 160.949C26.3064 160.92 25.1773 160.853 24.3874 160.179C23.6459 159.549 23.3776 158.54 23.1652 157.594C22.5281 154.745 22.0064 151.859 21.6115 148.947C21.5034 146.716 21.4512 144.474 21.4512 142.218C21.4512 131.213 22.7256 120.51 25.1401 110.243C25.3599 109.304 25.5909 108.37 25.8294 107.439C25.8294 107.435 25.8294 107.435 25.8294 107.431C27.1447 104.061 30.4945 93.1011 33.9598 92.4494C38.2895 91.6376 42.0716 97.2758 45.5778 100.575C48.7897 103.596 51.588 106.977 53.9467 110.701C57.6393 110.213 59.4129 105.662 62.867 104.273C66.1683 102.94 69.8087 104.854 72.8493 106.705C78.8781 110.381 84.9107 114.053 90.9395 117.725C94.4495 119.862 98.198 122.07 102.308 122.059C108.765 122.044 113.796 116.719 119.608 113.904C127.888 109.893 138.526 111.39 145.382 117.527L169.482 97.0598C169.859 96.7395 170.25 96.4379 170.671 96.1847C176.212 92.8554 180.105 98.5345 184.23 101.815C197.16 112.112 219.673 100.195 231.455 111.788L257.307 72.6375C258.544 70.7643 261.227 70.5856 262.702 72.2763L275.378 86.7963C277.409 89.1276 278.926 92.8107 282.093 91.2615C284.44 90.1107 285.931 86.8969 287.637 85.02C295.812 102.907 300.045 122.558 300.109 142.218H300.112Z" fill="url(#paint6_linear_18_7601)"/>
<path d="M300.373 142.218C300.373 151.539 299.457 160.648 297.709 169.459C296.103 177.563 293.793 185.417 290.846 192.95C203.192 190.019 115.536 187.096 27.8825 184.173C25.5052 176.643 23.754 168.833 22.6846 160.808C22.1592 156.902 21.8015 152.947 21.6115 148.947C21.5034 146.716 21.4512 144.474 21.4512 142.218C21.4512 137.064 21.7307 131.98 22.2747 126.979C24.257 126.871 26.2766 127.109 28.1396 127.675C33.9822 129.455 38.7404 133.596 43.6775 137.19C48.6146 140.784 54.3528 144.031 60.4376 143.54C67.6774 142.959 73.4305 137.309 80.294 134.948C87.873 132.341 96.8007 134.151 102.763 139.499C110.338 133.071 117.913 126.644 125.488 120.216C126.938 118.987 128.48 117.71 130.354 117.393C134.546 116.686 137.725 120.823 141.052 123.475C154.093 133.883 176.16 122.879 188.929 133.623C196.97 121.441 205.011 109.264 213.055 97.086C213.804 95.9464 214.617 94.7584 215.843 94.1589C218.183 93.0193 220.988 94.5015 222.792 96.3784C226.529 100.259 228.221 105.83 232.234 109.424C235.472 112.317 241.493 112.53 243.986 109.699C244.988 108.56 246.68 108.362 247.872 109.293L257.937 117.159C259.185 118.134 260.481 119.132 262.02 119.508C264.394 120.089 266.857 119.084 269.003 117.915C279.842 112.012 280.688 102.076 290.808 91.3882C296.983 107.137 300.373 124.283 300.373 142.218Z" fill="url(#paint7_linear_18_7601)"/>
<path d="M300.373 142.218C300.373 151.539 299.457 160.648 297.709 169.459C296.103 177.562 293.793 185.416 290.846 192.95C289.571 196.209 288.178 199.408 286.669 202.543C201.106 201.184 115.495 199.009 30.3417 191.289C29.4587 188.947 28.6389 186.575 27.8825 184.173C25.5052 176.643 23.754 168.833 22.6846 160.808C22.1592 156.901 21.8015 152.946 21.6115 148.947C21.5034 146.716 21.4512 144.474 21.4512 142.218C21.4512 140.121 21.4959 138.039 21.5891 135.969C30.7106 138.501 43.957 144.068 48.4693 137.51C49.5499 135.946 51.7744 135.734 53.0785 137.119L62.3193 146.932C63.683 140.951 65.9224 135.168 68.948 129.831C69.302 129.206 69.7529 128.632 70.308 128.174C72.8567 126.074 75.1371 127.72 76.9443 129.291C82.5707 134.174 87.6941 139.633 92.2139 145.554C95.1053 140.221 102.431 138.777 108.247 140.493C114.068 142.21 118.841 146.269 123.755 149.822C128.67 153.371 134.326 156.615 140.381 156.268C148.083 155.825 154.254 149.777 161.631 147.524C168.961 145.286 177.411 147.178 183.086 152.328L205.51 133.213C206.811 132.099 208.174 130.956 209.832 130.52C214.565 129.273 218.455 134.002 222.434 136.851C235.654 146.329 256.74 136.039 269.268 146.415C277.089 134.561 284.91 122.707 292.731 110.854C293.618 109.517 294.602 108.098 295.962 107.323C298.842 118.477 300.373 130.167 300.373 142.218Z" fill="url(#paint8_linear_18_7601)"/>
<path d="M114.507 41.9254L117.641 42.2754L119.705 39.8958L120.197 42.2829C121.907 40.1751 125.775 36.7043 133.73 34.522L132.597 36.4883C132.597 36.4883 135.645 34.8646 142.434 37.0283L135.686 38.5104L138.354 40.3985C138.354 40.3985 131.852 36.0637 120.558 43.0761L123.241 44.2082L120.503 45.7649L120.234 48.9042L117.905 46.7815L114.835 47.4965L116.136 44.6253L114.507 41.9291V41.9254Z" fill="url(#paint9_linear_18_7601)"/>
<g style="mix-blend-mode:soft-light" opacity="0.55">
<path d="M159.314 16.3859L160.927 15.5405L160.622 17.3355L161.926 18.6054L160.122 18.8698L159.314 20.501L158.509 18.8698L156.705 18.6054L158.01 17.3355L157.7 15.5405L159.314 16.3859Z" fill="#E8F1FF"/>
</g>
<g style="mix-blend-mode:soft-light" opacity="0.55">
<path d="M250.298 59.175L251.911 58.3259L251.606 60.1209L252.91 61.3945L251.107 61.6552L250.298 63.2901L249.493 61.6552L247.69 61.3945L248.994 60.1209L248.688 58.3259L250.298 59.175Z" fill="#E8F1FF"/>
</g>
<g style="mix-blend-mode:soft-light" opacity="0.55">
<path d="M179.405 51.1872L181.018 50.3418L180.713 52.1368L182.017 53.4067L180.214 53.6674L179.405 55.3022L178.6 53.6674L176.797 53.4067L178.101 52.1368L177.792 50.3418L179.405 51.1872Z" fill="#E8F1FF"/>
</g>
<g style="mix-blend-mode:soft-light" opacity="0.55">
<path d="M203.964 73.5424L205.577 72.697L205.268 74.492L206.572 75.7619L204.769 76.0226L203.964 77.6574L203.155 76.0226L201.352 75.7619L202.656 74.492L202.35 72.697L203.964 73.5424Z" fill="#E8F1FF"/>
</g>
<g style="mix-blend-mode:soft-light" opacity="0.55">
<path d="M213.361 48.7067L214.974 47.8577L214.665 49.6527L215.973 50.9263L214.17 51.187L213.361 52.8218L212.556 51.187L210.753 50.9263L212.057 49.6527L211.748 47.8577L213.361 48.7067Z" fill="#E8F1FF"/>
</g>
<g style="mix-blend-mode:soft-light" opacity="0.55">
<path d="M165.454 71.0622L167.068 70.2131L166.759 72.0081L168.066 73.2817L166.263 73.5424L165.454 75.1773L164.65 73.5424L162.846 73.2817L164.15 72.0081L163.841 70.2131L165.454 71.0622Z" fill="#E8F1FF"/>
</g>
<g style="mix-blend-mode:soft-light" opacity="0.55">
<path d="M135.139 98.6239L136.752 97.7786L136.443 99.5736L137.751 100.843L135.947 101.108L135.139 102.739L134.334 101.108L132.53 100.843L133.835 99.5736L133.525 97.7786L135.139 98.6239Z" fill="#E8F1FF"/>
</g>
<g style="mix-blend-mode:soft-light" opacity="0.55">
<path d="M55.4185 83.6122L57.0319 82.7668L56.7227 84.5618L58.0268 85.8317L56.2234 86.0924L55.4185 87.7273L54.61 86.0924L52.8065 85.8317L54.1144 84.5618L53.8051 82.7668L55.4185 83.6122Z" fill="#E8F1FF"/>
</g>
<g style="mix-blend-mode:soft-light" opacity="0.55">
<path d="M217.579 23.1264L219.189 22.2773L218.883 24.0723L220.187 25.346L218.384 25.6066L217.579 27.2415L216.77 25.6066L214.967 25.346L216.271 24.0723L215.966 22.2773L217.579 23.1264Z" fill="#E8F1FF"/>
</g>
<g style="mix-blend-mode:soft-light" opacity="0.55">
<path d="M182.106 30.4033L183.72 29.5542L183.414 31.3492L184.718 32.6228L182.915 32.8835L182.106 34.5183L181.302 32.8835L179.498 32.6228L180.802 31.3492L180.493 29.5542L182.106 30.4033Z" fill="#E8F1FF"/>
</g>
<g style="mix-blend-mode:soft-light" opacity="0.55">
<path d="M239.462 83.6122L241.076 82.7668L240.767 84.5618L242.074 85.8317L240.271 86.0924L239.462 87.7273L238.658 86.0924L236.854 85.8317L238.158 84.5618L237.849 82.7668L239.462 83.6122Z" fill="#E8F1FF"/>
</g>
<g style="mix-blend-mode:soft-light" opacity="0.55">
<path d="M106.977 30.4033L108.59 29.5542L108.281 31.3492L109.589 32.6228L107.785 32.8835L106.977 34.5183L106.172 32.8835L104.368 32.6228L105.673 31.3492L105.363 29.5542L106.977 30.4033Z" fill="#E8F1FF"/>
</g>
<g style="mix-blend-mode:soft-light" opacity="0.55">
<path d="M128.469 55.1793L130.082 54.334L129.777 56.129L131.081 57.3989L129.278 57.6633L128.469 59.2944L127.664 57.6633L125.861 57.3989L127.165 56.129L126.859 54.334L128.469 55.1793Z" fill="#E8F1FF"/>
</g>
<g style="mix-blend-mode:soft-light" opacity="0.55">
<path d="M70.0882 59.175L71.7016 58.3259L71.3923 60.1209L72.6965 61.3945L70.893 61.6552L70.0882 63.2901L69.2796 61.6552L67.4762 61.3945L68.7841 60.1209L68.4748 58.3259L70.0882 59.175Z" fill="#E8F1FF"/>
</g>
<path d="M286.49 202.912C263.917 249.489 216.171 281.601 160.912 281.601C101.171 281.601 50.2019 244.059 30.3417 191.289C29.4586 188.947 28.6389 186.575 27.8825 184.173C27.1634 181.897 26.5038 179.6 25.9039 177.276C50.3957 172.863 81.7621 176.628 102.934 183.16C111.858 185.912 118.714 189.073 133.38 192.287C144.037 194.619 161.702 197.609 195.025 196.849C242.421 195.769 244.142 188.865 263.522 193.807C264.386 194.026 275.323 196.939 286.49 202.912Z" fill="url(#paint10_linear_18_7601)"/>
<path d="M196.303 143.223C196.329 142.899 196.541 142.653 196.776 142.672C197.011 142.691 197.182 142.966 197.156 143.29" stroke="#281922" stroke-width="0.76" stroke-miterlimit="10"/>
<path d="M198.274 154.734C198.274 154.734 198.922 155.363 198.561 158.425C198.378 159.963 197.585 163.72 196.623 167.31" stroke="#2D5D5E" stroke-width="0.86" stroke-miterlimit="10"/>
<path d="M208.852 146.236C207.351 149.61 203.606 151.226 200.491 149.841C197.376 148.455 196.001 144.568 197.566 141.223C199.265 137.596 202.22 136.818 205.223 138.434C208.521 140.207 210.35 142.866 208.849 146.24L208.852 146.236Z" fill="#1E7DF4"/>
<path d="M197.655 150.902C199.861 151.759 204.415 150.403 205.268 148.198C205.268 148.198 206.948 144.973 206.732 143.689C206.356 141.462 202.011 139.577 200.137 139.209C197.264 138.643 195.826 143.808 195.826 143.808C194.034 147.837 196.69 150.526 197.655 150.898V150.902Z" fill="#FF8F6A"/>
<path d="M207.124 147.889C206.71 148.817 205.529 149.249 204.389 148.809L205.734 145.387C206.874 145.822 207.865 146.225 207.124 147.889Z" fill="#121420"/>
<path d="M207.355 141.13C205.957 139.905 199.932 137.455 199.932 137.455C199.932 137.455 200.115 139.939 202.142 142.37C202.697 143.037 203.446 143.666 204.191 144.21C204.962 144.769 205.354 145.715 205.171 146.646L205.298 146.448C205.674 145.863 206.43 145.659 207.053 145.975C207.053 145.975 208.748 142.359 207.351 141.134L207.355 141.13Z" fill="#1E7DF4"/>
<path d="M204.579 146.065C204.579 146.065 200.99 142.597 195.9 141.57C195.9 141.57 196.448 137.365 199.552 136.654C201.56 136.196 208.573 139.439 204.579 146.065Z" fill="#1E7DF4"/>
<path d="M222.002 173.403C220.247 171.578 213.883 167.954 210.913 166.081L210.052 165.381C209.84 165.184 209.668 165.016 209.668 165.016C209.665 165.016 209.661 165.02 209.657 165.024C209.117 164.424 206.997 162.063 206.818 162.056L205.123 161.653C204.869 161.642 204.716 161.936 204.873 162.138C205.13 162.469 205.197 162.588 205.603 162.689L205.965 162.778L206.632 163.564L204.403 162.465L203.33 162.119C203.058 162.041 202.764 162.052 202.499 162.156C202.499 162.156 202.362 162.246 202.339 162.316C202.321 162.387 202.332 162.462 202.376 162.521C202.376 162.521 202.522 162.793 203.07 163.009L204.027 163.318L205.532 164.04C205.89 164.283 205.573 164.242 205.48 164.201L203.692 163.415L202.235 162.99C201.963 162.912 201.669 162.923 201.404 163.028L201.385 163.035C201.318 163.061 201.266 163.117 201.244 163.188C201.225 163.258 201.236 163.333 201.281 163.393L201.292 163.407C201.46 163.635 201.702 163.802 201.974 163.88L203.315 164.268L205.357 165.359C205.689 165.601 205.428 165.631 205.264 165.545L203.927 164.867L202.496 164.361C202.227 164.264 201.933 164.264 201.661 164.35L201.642 164.357C201.572 164.379 201.519 164.435 201.493 164.502C201.471 164.573 201.478 164.648 201.519 164.711L201.531 164.726C201.687 164.964 201.918 165.143 202.186 165.236L203.505 165.698L205.126 166.614C205.182 166.647 205.156 166.733 205.093 166.729L204.884 166.722L203.457 166.223L202.563 165.601C202.265 165.441 202.011 165.467 201.754 165.683C201.65 165.772 201.661 165.936 201.78 166.007L202.943 166.919L204.504 167.645L205.246 167.85L209.937 169.265L215.537 176.609C215.537 176.609 216.316 178.147 218.943 179.235C222.807 180.836 225.583 177.134 221.994 173.403H222.002Z" fill="#121420"/>
<path d="M190.058 180.326C192.368 179.287 197.916 174.509 200.681 172.341L201.627 171.764C201.885 171.63 202.101 171.526 202.101 171.526C202.101 171.522 202.101 171.518 202.101 171.515C202.85 171.209 205.782 170.003 205.849 169.839L206.796 168.379C206.892 168.141 206.665 167.902 206.423 167.984C206.024 168.118 205.89 168.137 205.655 168.487L205.45 168.8L204.489 169.165L206.274 167.433L206.96 166.539C207.127 166.308 207.213 166.029 207.206 165.742C207.206 165.742 207.168 165.582 207.109 165.538C207.049 165.497 206.974 165.482 206.904 165.504C206.904 165.504 206.598 165.552 206.211 165.992L205.6 166.789L204.415 167.962C204.064 168.215 204.21 167.932 204.28 167.858L205.618 166.435L206.509 165.206C206.676 164.975 206.762 164.696 206.755 164.409V164.391C206.755 164.316 206.717 164.249 206.658 164.208C206.598 164.167 206.524 164.152 206.453 164.175L206.434 164.182C206.162 164.264 205.927 164.435 205.76 164.666L204.944 165.802L203.23 167.355C202.891 167.586 202.95 167.333 203.084 167.206L204.172 166.174L205.13 164.998C205.309 164.778 205.413 164.502 205.417 164.216V164.197C205.417 164.122 205.387 164.055 205.331 164.007C205.275 163.962 205.197 163.944 205.126 163.962H205.108C204.832 164.033 204.586 164.189 204.407 164.413L203.532 165.5L202.127 166.718C202.078 166.759 202.004 166.707 202.03 166.647L202.108 166.454L203.055 165.277L203.941 164.644C204.191 164.42 204.254 164.171 204.135 163.854C204.087 163.724 203.927 163.683 203.822 163.772L202.57 164.562L201.363 165.787L200.923 166.416L198.013 170.356L189.212 173.164C189.212 173.164 187.502 173.38 185.594 175.492C182.788 178.594 185.348 182.448 190.065 180.322L190.058 180.326Z" fill="#121420"/>
<path d="M204.064 152.634L204.4 149.331C204.776 148.988 205.063 148.608 205.223 148.198C205.223 148.198 206.904 144.973 206.688 143.689C206.311 141.462 201.967 139.577 200.092 139.209C197.219 138.643 195.781 143.808 195.781 143.808C193.989 147.837 196.646 150.526 197.611 150.898C198.129 151.099 198.777 151.174 199.474 151.148L199.205 152.991C197.518 153.218 196.471 153.468 196.471 153.468C196.471 153.468 200.539 166.32 202.354 165.303C204.169 164.29 206.255 152.667 206.255 152.667C205.506 152.63 204.776 152.619 204.072 152.63L204.064 152.634Z" fill="#121420"/>
<path d="M222.378 168.826C219.692 165.351 219.356 154.28 212.698 153.14C212.698 153.14 212.69 153.174 212.675 153.23C212.12 153.148 209.266 152.749 206.248 152.671C206.248 152.671 203.919 154.656 201.236 154.656C199.157 154.656 196.463 153.472 196.463 153.472C196.463 153.472 196.117 154.481 195.725 156.004C189.212 157.281 188.858 168.211 186.194 171.656C183.865 174.669 182.788 176.721 184.238 179.964C185.344 182.441 187.781 182.556 188.94 182.56C193.233 182.56 192.048 177.261 195.118 172.405C195.155 172.427 195.189 172.449 195.226 172.468C195.226 172.561 195.226 172.658 195.222 172.747L195.293 172.505C195.494 172.617 195.692 172.717 195.878 172.807C194.976 175.875 196.295 178.274 196.914 180.017C197.752 182.374 198.084 185.1 202.835 185.841C203.163 186.496 203.356 186.884 203.356 186.884C208.294 188.37 212.787 188.075 213.342 171.28C213.354 170.904 213.35 170.241 213.335 169.396C216.554 174.3 215.284 179.734 219.628 179.734C220.787 179.734 223.224 179.618 224.331 177.138C225.78 173.894 224.703 171.842 222.374 168.83L222.378 168.826Z" fill="url(#paint11_linear_18_7601)"/>
<path d="M195.23 150.094C196.251 148.954 196.731 147.431 196.474 145.923C196.336 145.115 196.318 144.251 196.437 143.368C197.179 137.756 199.824 137.123 202.749 137.57C203.874 137.741 204.847 138.341 205.592 139.22C205.954 139.648 206.434 139.953 206.974 140.117C209.426 140.858 210.797 143.365 210.313 145.744C210.108 146.742 210.332 147.792 210.98 148.578C212.038 149.859 212.623 151.487 212.597 153.181C212.579 154.272 213.108 155.3 213.961 155.978C216.103 157.676 217.188 160.566 216.364 163.478C215.481 166.599 212.504 168.736 209.262 168.587C206.453 168.457 204.172 166.759 203.122 164.439C202.481 163.027 201.195 162.011 199.656 161.813C199.597 161.806 199.533 161.799 199.474 161.787C193.598 160.886 191.772 153.967 195.237 150.094H195.23Z" fill="#1E7DF4"/>
<path d="M208.681 221.521C209.411 220.497 210.678 220.05 211.748 219.484C212.314 219.186 212.921 218.925 213.562 218.903C216.737 218.78 217.158 221.838 217.195 224.24C217.225 226.139 217.501 228.057 217.683 229.941C218.123 234.51 217.672 239.184 217.259 243.742C216.819 248.595 216.13 253.388 215.31 258.188C215.28 258.356 215.246 258.538 215.12 258.653C214.982 258.78 214.781 258.791 214.594 258.799C213.559 258.836 212.519 258.869 211.483 258.907C209.765 258.966 210.235 254.758 210.179 253.585C210.067 251.254 210 248.919 209.836 246.591C209.609 243.4 209.151 240.134 209.151 236.939C208.946 234.06 208.741 231.177 208.536 228.299C208.387 226.191 207.321 223.428 208.685 221.525L208.681 221.521Z" fill="#121420"/>
<path d="M190.922 222.191C191.097 221.61 191.418 221.104 191.839 220.586C193.11 219.022 195.55 218.352 197.424 219.167C199.131 219.909 200.905 222.139 201.147 223.774C201.426 225.655 201.534 227.74 201.534 229.531C201.534 234.119 202.231 238.566 202.417 243.135C202.619 248.036 202.563 252.937 202.883 257.845C202.883 257.897 201.832 258.393 201.743 258.411C201.024 258.531 199.03 259.234 198.427 258.821C198.091 258.59 197.924 257.51 197.797 257.13C197.588 256.505 197.387 255.875 197.193 255.246C196.456 252.825 195.841 250.367 195.353 247.887C195.021 246.2 194.909 244.551 194.529 242.875C194.123 241.08 193.732 239.277 193.493 237.449C193.27 235.758 192.8 234.064 192.458 232.392C192.279 231.524 192.227 230.574 191.999 229.729C191.407 227.487 190.703 225.454 190.784 223.085C190.796 222.765 190.844 222.474 190.926 222.199L190.922 222.191Z" fill="#121420"/>
<path d="M216.025 253.756C218.522 237.318 218.116 234.51 217.676 229.941C217.493 228.057 217.221 226.139 217.188 224.24C217.18 223.692 217.151 223.111 217.072 222.541C217.091 222.24 217.113 221.934 217.139 221.629L219.684 209.451C219.844 206.483 220.783 202.752 220.992 198.205C221.7 182.731 215.071 178.665 215.071 178.665L213.376 175.864C206.33 179.771 198.706 180.735 195.774 176.62L195.986 179.7C192.435 186.347 190.628 206.152 190.971 211.816C191.001 212.297 190.732 222.482 190.777 223.171C190.717 225.506 191.411 227.513 191.996 229.725C192.219 230.574 192.275 231.52 192.454 232.388C192.797 234.06 193.266 235.754 193.49 237.445C193.728 239.274 194.119 241.076 194.526 242.871C194.906 244.547 195.017 246.197 195.349 247.884C195.837 250.367 196.452 252.822 197.19 255.242L202.697 253.939C202.883 249.317 203.181 245.616 201.829 229.483C201.68 227.699 201.43 225.655 201.151 223.774C201.128 223.618 201.08 223.458 201.031 223.294C201.069 222.996 201.113 222.702 201.154 222.404L204.139 209.511L204.832 203.716C205.413 201.761 205.54 199.869 205.894 197.862C205.987 197.333 206.054 196.793 206.088 196.253L207.697 221.283C207.738 222.311 207.805 223.405 208.01 224.43C208.085 225.748 208.45 227.122 208.532 228.295C208.737 231.174 208.942 234.056 209.147 236.935C209.147 240.134 209.609 243.4 209.832 246.588C210 248.915 210.063 251.25 210.175 253.581" fill="url(#paint12_linear_18_7601)"/>
<path d="M215.109 178.665L213.413 175.864C206.367 179.771 198.743 180.735 195.811 176.62L196.023 179.7C196.023 179.7 199.776 184.657 215.109 178.668V178.665Z" fill="#E8F1FF"/>
<path d="M216.156 262.687C216.185 262.646 216.212 262.605 216.23 262.556C216.308 262.374 216.297 262.162 216.282 261.961C216.197 260.743 216.044 259.532 215.824 258.341C215.638 257.317 215.064 256.732 214.322 256.199C214.088 256.032 213.853 255.864 213.6 255.741C211.871 254.903 210.827 256.054 210.183 257.805C209.672 259.186 209.341 260.65 209.195 262.136C209.195 262.173 209.188 262.21 209.184 262.247L216.152 262.687H216.156Z" fill="url(#paint13_linear_18_7601)"/>
<path d="M216.23 262.083L213.242 261.897C213.316 260.408 213.368 258.918 213.395 257.425C213.402 256.974 213.409 256.523 213.413 256.073C213.413 255.969 213.178 255.957 213.178 256.058C213.164 257.644 213.123 259.231 213.055 260.817C213.041 261.171 213.022 261.525 213.007 261.879L211.997 261.815C212.064 260.296 212.154 258.776 212.266 257.257C212.299 256.795 212.336 256.333 212.374 255.868C212.381 255.767 212.146 255.749 212.139 255.853C212.001 257.488 211.893 259.126 211.807 260.765C211.789 261.111 211.774 261.454 211.759 261.8L209.285 261.644C209.121 261.633 208.979 261.778 208.968 261.964L208.957 262.165C208.946 262.355 209.069 262.515 209.233 262.523L216.178 262.959C216.342 262.97 216.484 262.824 216.495 262.638L216.506 262.437C216.517 262.247 216.394 262.087 216.23 262.08V262.083Z" fill="#1E7DF4"/>
<path d="M198.293 263.119C198.021 263.197 197.745 263.275 197.469 263.357C196.977 263.502 196.474 263.621 195.964 263.67C195.673 263.7 195.006 263.897 194.92 263.487C194.891 263.342 194.935 263.189 194.991 263.052C195.364 262.109 196.139 261.394 196.802 260.623C197.398 259.931 197.954 259.171 198.445 258.396C198.866 257.73 199.25 257.067 199.947 256.646C201.505 255.7 202.615 256.572 203.412 258.009C204.042 259.145 204.512 260.374 204.802 261.644C204.81 261.677 204.817 261.707 204.824 261.741C203.837 261.927 202.853 262.117 201.866 262.303C201.445 262.385 201.016 262.459 200.603 262.575C200.245 262.672 199.869 262.698 199.504 262.791C199.097 262.895 198.699 263.003 198.3 263.115L198.293 263.119Z" fill="url(#paint14_linear_18_7601)"/>
<path d="M194.954 263.085C197.16 262.664 199.362 262.243 201.568 261.826C201.262 260.549 200.968 259.268 200.696 257.983C200.614 257.596 200.532 257.209 200.45 256.818C200.435 256.736 200.67 256.724 200.689 256.818C200.972 258.184 201.27 259.547 201.587 260.907C201.654 261.197 201.724 261.491 201.795 261.782C202.172 261.711 202.552 261.636 202.928 261.566L203.114 261.532C202.794 260.247 202.403 258.978 201.941 257.734C201.803 257.361 201.657 256.989 201.508 256.62C201.471 256.527 201.706 256.505 201.736 256.587C202.272 257.901 202.734 259.249 203.114 260.624C203.192 260.91 203.267 261.201 203.342 261.487C203.74 261.413 204.139 261.335 204.534 261.26C204.757 261.219 204.966 261.312 204.996 261.476L205.029 261.648C205.059 261.808 204.903 261.975 204.679 262.016L195.099 263.841C194.876 263.882 194.667 263.789 194.637 263.625L194.604 263.454C194.574 263.294 194.73 263.126 194.954 263.085Z" fill="#1E7DF4"/>
<path d="M193.285 174.978C195.807 174.74 202.995 176.144 206.468 176.661L207.574 176.691C207.865 176.68 208.103 176.665 208.103 176.665C208.103 176.669 208.103 176.672 208.107 176.676C208.908 176.572 212.057 176.17 212.195 176.278L213.741 177.078C213.942 177.238 213.864 177.555 213.614 177.607C213.204 177.689 213.074 177.737 212.701 177.551L212.37 177.384L211.353 177.544L213.76 178.166L214.799 178.601C215.06 178.721 215.272 178.922 215.407 179.171C215.407 179.171 215.451 179.331 215.422 179.398C215.392 179.465 215.332 179.514 215.258 179.529C215.258 179.529 214.967 179.64 214.415 179.447L213.491 179.056L211.878 178.624C211.45 178.575 211.714 178.75 211.815 178.78L213.681 179.354L215.064 179.983C215.325 180.102 215.537 180.303 215.671 180.553L215.679 180.571C215.712 180.635 215.716 180.713 215.686 180.78C215.656 180.847 215.597 180.895 215.522 180.91H215.504C215.228 180.977 214.937 180.948 214.68 180.828L213.409 180.247L211.151 179.745C210.742 179.711 210.92 179.901 211.099 179.946L212.552 180.303L213.968 180.854C214.233 180.959 214.46 181.145 214.606 181.391L214.617 181.406C214.654 181.469 214.661 181.543 214.635 181.614C214.609 181.681 214.55 181.733 214.483 181.756H214.464C214.192 181.838 213.901 181.823 213.637 181.722L212.336 181.212L210.511 180.851C210.447 180.84 210.41 180.922 210.462 180.959L210.626 181.089L212.031 181.644L213.115 181.756C213.443 181.826 213.622 182.013 213.674 182.344C213.696 182.478 213.577 182.597 213.443 182.571L211.967 182.504L210.309 182.035L209.613 181.707L205.134 179.722L196.094 181.637C196.094 181.637 194.503 182.292 191.798 181.406C187.822 180.098 188.139 175.484 193.292 174.997L193.285 174.978Z" fill="#1E7DF4"/>
<path d="M181.931 152.332L181.875 147.55L178.581 146.56L177.333 147.8C177.333 147.8 177.162 148.563 177.013 149.237C176.785 150.258 174.203 156.149 178.745 157.627C182.714 158.923 181.931 152.336 181.931 152.332Z" fill="#1E7DF4"/>
<path d="M175.589 148.172L176.864 148.507C178.626 148.973 180.526 148.794 182.103 147.878C183.958 146.798 184.901 145.07 185.825 143.249C185.825 143.249 187.472 142.876 187.319 141.458C187.058 138.992 182.427 136.631 180.396 136.099C177.285 135.283 175.358 140.847 175.358 140.847C173.868 143.711 173.846 145.759 174.226 146.928C174.427 147.55 174.96 148.004 175.589 148.172Z" fill="#1E7DF4"/>
<path d="M178.921 133.045C179.405 133.35 180.016 133.283 180.523 133.012C181.074 132.714 181.913 132.684 183.064 133.753C184.636 135.212 185.266 136.572 186.015 137.633C186.008 136.497 186.604 135.447 186.604 135.447C186.399 137.022 186.913 138.274 186.913 138.274C189.737 139.428 189.07 142.091 189.07 142.091C189.231 141.312 188.832 140.638 188.292 140.102C188.992 141.521 188.653 143.744 185.166 146.444C184.99 146.582 184.826 146.716 184.666 146.85L184.692 146.865C182.736 147.878 181.819 149.159 181.451 149.826L181.234 150.276C181.234 150.276 181.033 150.332 180.769 150.362L180.236 150.459L177.288 149.289C177.288 149.289 177.859 146.295 178.034 144.623C178.201 143.007 176.599 143.584 176.528 143.361C174.803 142.519 176.23 137.384 176.26 136.546C176.305 135.242 177.385 132.088 178.921 133.045Z" fill="#121420"/>
<path d="M179.204 143.387C178.596 144.321 177.24 144.586 176.081 143.919L177.452 141.584C177.907 140.81 179.055 140.761 179.509 141.536C179.77 141.979 179.748 142.552 179.204 143.39V143.387Z" fill="#1E7DF4"/>
<path d="M146.943 128.249L147.521 125.098L147.595 122.111C147.595 122.063 147.543 122.029 147.502 122.055L147.077 122.286C147.003 122.327 146.95 122.398 146.943 122.484C146.898 123.027 146.436 123.668 146.716 124.875L146.049 126.036L146.939 128.252L146.943 128.249Z" fill="#2F8CF2"/>
<path d="M146.593 133.079L145.639 131.816L146.943 128.249L145.784 125.031L142.513 124.938C142.542 125.452 142.964 125.858 143.478 125.873H143.619L142.595 126.159L142.222 127.381C142.554 127.4 142.87 127.236 143.049 126.953L143.135 126.815L143.675 126.901C143.675 126.901 142.692 131.131 143.094 132.472C143.303 133.168 144.938 134.721 144.938 134.721L146.593 133.075V133.079Z" fill="#1E7DF4"/>
<path d="M143.623 125.88L144.633 125.813L145.799 127.671L145.028 125.441L143.623 125.88Z" fill="#2F8CF2"/>
<path d="M143.675 126.904L144.309 127.068L144.648 128.073L143.873 127.291L143.616 127.183L143.675 126.904Z" fill="#2F8CF2"/>
<path d="M143.519 127.645L144.063 127.761L144.491 128.059L143.962 127.895L143.485 127.798L143.519 127.645Z" fill="#2F8CF2"/>
<path d="M152.759 146.586C150.375 145.435 148.888 142.359 148.888 142.359L143.448 132.907C143.806 132.799 143.988 131.846 144.394 131.44C144.923 130.904 145.669 130.863 146 130.487C146 130.487 148.288 133.958 149.171 134.736C154.578 139.488 156.143 139.101 157.827 141.316C160.536 144.88 156.269 148.277 152.759 146.586Z" fill="#1E7DF4"/>
<path d="M152.961 153.483C151.455 151.818 143.329 138.721 143.448 136.17C143.701 130.855 149.913 130.014 154.552 136.036C156.106 138.054 159.548 143.614 161.181 147.007C163.815 152.477 161.091 154.112 160.193 154.719C158.58 155.81 154.854 155.587 152.957 153.483H152.961Z" fill="url(#paint15_linear_18_7601)"/>
<path d="M169.117 258.341C168.666 258.635 167.984 258.247 167.485 258.229C166.285 258.188 165.082 258.236 163.889 258.382C163.912 258.382 163.658 256.695 163.655 256.564C163.655 256.125 163.718 255.689 163.752 255.253C163.901 253.227 163.323 251.224 163.371 249.206C163.398 248.122 163.513 246.938 164.281 246.167C165.22 245.221 166.915 245.295 167.94 246.152C169.4 247.366 169.33 249.384 169.225 251.105C169.154 252.293 168.957 253.503 169.24 254.661C169.344 255.082 169.508 255.488 169.598 255.913C169.736 256.587 169.732 257.681 169.244 258.233C169.203 258.277 169.158 258.315 169.113 258.348L169.117 258.341Z" fill="#1E7DF4"/>
<path d="M170.105 261.171C170.131 261.13 170.149 261.089 170.164 261.041C170.22 260.862 170.19 260.664 170.157 260.475C169.959 259.339 169.698 258.214 169.382 257.112C169.106 256.166 168.502 255.667 167.738 255.235C167.5 255.097 167.258 254.963 167.001 254.87C165.264 254.24 164.37 255.421 163.915 257.127C163.554 258.471 163.371 259.879 163.375 261.29C163.375 261.327 163.375 261.361 163.375 261.398L170.101 261.167L170.105 261.171Z" fill="url(#paint16_linear_18_7601)"/>
<path d="M170.123 260.597L167.239 260.694C167.172 259.287 167.083 257.879 166.967 256.475C166.934 256.05 166.896 255.626 166.859 255.201C166.852 255.104 166.624 255.116 166.632 255.209C166.766 256.702 166.874 258.199 166.96 259.696C166.978 260.031 166.993 260.366 167.012 260.698L166.036 260.731C165.957 259.294 165.902 257.856 165.868 256.419C165.857 255.98 165.849 255.544 165.842 255.104C165.842 255.008 165.615 255.015 165.615 255.112C165.637 256.661 165.682 258.214 165.756 259.763C165.771 260.087 165.79 260.415 165.805 260.739L163.416 260.821C163.26 260.825 163.137 260.973 163.14 261.152L163.148 261.342C163.155 261.521 163.286 261.659 163.446 261.655L170.153 261.428C170.31 261.424 170.432 261.275 170.429 261.096L170.421 260.906C170.414 260.728 170.283 260.59 170.123 260.594V260.597Z" fill="#1E7DF4"/>
<path d="M180.776 240.506C182.524 239.977 183.802 240.927 184.517 242.323C184.871 243.016 184.852 243.928 184.942 244.677C184.968 245.418 185.177 246.155 185.18 246.893C185.184 247.671 185.277 248.435 185.437 249.202C185.754 250.743 186.261 252.252 186.481 253.808C186.503 253.968 186.522 254.136 186.444 254.281C186.283 254.587 185.352 254.743 185.013 254.818C184.577 254.914 184.107 255.052 183.723 255.268C182.691 255.853 182.449 257.115 181.696 257.987C181.648 258.043 181.585 258.098 181.51 258.084C181.439 258.065 181.413 257.99 181.398 257.923C181.328 257.603 181.275 257.283 181.216 256.963C180.888 255.183 180.672 253.432 180.131 251.686C179.532 249.749 178.887 247.801 178.179 245.898C177.959 245.303 177.736 244.699 177.65 244.074C177.564 243.448 177.628 242.789 177.948 242.23C178.227 241.739 178.73 241.333 179.327 241.199C179.61 241.135 179.751 241.15 179.968 240.979C180.232 240.77 180.411 240.614 180.769 240.502L180.776 240.506Z" fill="#1E7DF4"/>
<path d="M179.718 261.491C179.863 260.903 180.292 260.374 180.571 259.811C181.141 258.653 180.918 257.369 181.104 256.147C181.279 254.985 181.883 253.801 183.049 253.209C183.671 252.892 184.424 252.773 185.11 252.937C186.872 253.35 187.915 255.402 187.83 256.937C187.785 257.745 187.517 258.53 187.196 259.29C186.73 260.385 185.784 260.586 184.677 260.951C183.954 261.189 183.232 261.424 182.509 261.662L179.729 261.759C179.684 261.677 179.699 261.584 179.718 261.495V261.491Z" fill="url(#paint17_linear_18_7601)"/>
<path d="M179.882 261.644C180.456 260.791 181.924 260.389 182.404 259.506C182.74 258.888 182.501 258.188 182.635 257.532C182.807 256.694 183.638 255.942 184.711 255.629C184.718 255.629 184.726 255.626 184.733 255.622C184.476 254.773 184.219 253.927 183.962 253.078C183.94 253.004 184.189 252.982 184.219 253.071C184.472 253.901 184.722 254.732 184.975 255.562C185.415 255.465 185.87 255.439 186.317 255.469C186.049 254.661 185.683 253.883 185.229 253.145C185.177 253.063 185.43 253.03 185.475 253.104C185.944 253.86 186.313 254.665 186.585 255.495C186.805 255.525 187.021 255.566 187.237 255.618C187.349 255.648 187.446 255.689 187.532 255.741C188.02 256.05 188.109 256.735 188.001 257.272C187.874 257.89 187.532 258.452 187.312 259.048C187.081 259.677 186.954 261.372 186.116 261.532C185.352 261.677 184.428 261.588 183.649 261.614L179.83 261.744C179.845 261.707 179.867 261.67 179.889 261.636L179.882 261.644Z" fill="#1E7DF4"/>
<path d="M186.548 245.992C186.54 245.872 186.529 245.753 186.522 245.634C186.451 244.759 186.369 243.884 186.276 243.009C186.265 242.889 186.25 242.77 186.239 242.655C186.078 241.188 185.896 239.728 185.709 238.264C185.695 238.145 185.68 238.026 185.665 237.903C185.505 236.626 185.341 235.345 185.195 234.063C185.184 233.948 185.169 233.836 185.158 233.721C185.102 233.211 185.046 232.697 184.994 232.187C184.923 231.46 184.845 230.738 184.763 230.015C184.752 229.9 184.737 229.785 184.726 229.669C184.58 228.388 184.424 227.111 184.253 225.833C184.245 225.77 184.234 225.707 184.227 225.643C184.219 225.591 184.212 225.539 184.204 225.487C184.059 224.437 183.873 223.39 183.75 222.34C183.686 221.796 183.809 221.264 183.873 220.724C183.887 220.608 183.899 220.493 183.906 220.378C183.906 220.307 183.914 220.232 183.91 220.158C184.089 218.661 184.264 217.16 184.435 215.663C184.45 215.548 184.461 215.432 184.476 215.313C184.607 214.181 184.73 213.049 184.852 211.913C184.864 211.797 184.879 211.682 184.89 211.567C185.031 210.237 185.162 208.904 185.288 207.574C185.3 207.459 185.311 207.343 185.322 207.228C185.437 205.977 185.546 204.725 185.642 203.474C185.68 202.975 185.717 202.472 185.754 201.973C185.762 201.858 185.769 201.742 185.78 201.627C185.885 200.111 185.974 198.599 186.041 197.08C186.049 196.965 186.052 196.849 186.056 196.734C186.104 195.646 186.142 194.559 186.164 193.471C186.194 192.224 186.514 190.727 186.354 189.502C186.194 188.28 185.259 184.768 184.167 183.822C183.981 183.659 183.925 185.859 183.716 185.71C182.375 184.727 180.728 184.042 179.256 183.867C179.159 183.856 179.062 183.845 178.969 183.841C178.54 183.811 178.116 183.822 177.695 183.875C177.512 183.897 177.333 183.927 177.154 183.964C175.153 184.377 173.361 185.67 172.206 187.275C172.098 187.424 171.994 187.58 171.897 187.733C171.837 187.829 171.778 187.926 171.722 188.023C171.591 188.254 171.472 188.489 171.356 188.727C171.207 188.15 171.025 187.584 170.805 187.059C170.455 186.224 170.008 185.487 169.441 184.94C168.737 184.258 167.772 183.8 166.725 183.517C166.55 183.469 166.375 183.428 166.196 183.39C164.854 183.111 163.427 183.096 162.246 183.268C162.164 183.279 162.082 183.29 162.004 183.305C161.915 183.32 161.821 183.338 161.732 183.357C160.912 183.521 160.107 183.796 159.418 184.266C159.031 184.53 158.703 184.817 158.431 185.118C158.241 185.331 158.08 185.55 157.939 185.778C157.015 187.275 157.033 189.122 156.996 191.081C156.959 193.084 157.078 195.084 157.242 197.08C157.249 197.199 157.261 197.315 157.272 197.43C157.361 198.491 157.462 199.549 157.555 200.61C157.566 200.726 157.577 200.845 157.585 200.96C157.585 200.964 157.585 200.968 157.585 200.972C157.719 202.521 157.816 204.07 157.89 205.619C157.898 205.738 157.901 205.854 157.905 205.969C157.965 207.235 158.006 208.505 158.047 209.772C158.047 209.891 158.054 210.006 158.058 210.125C158.106 211.73 158.151 213.339 158.211 214.944C158.211 215.063 158.218 215.179 158.222 215.298C158.274 216.698 158.337 218.095 158.427 219.491C158.434 219.607 158.442 219.726 158.449 219.841C158.472 220.203 158.498 220.564 158.527 220.921C158.654 222.575 158.818 224.228 158.997 225.878C159.008 225.993 159.023 226.109 159.034 226.224C159.172 227.494 159.321 228.76 159.47 230.027C159.485 230.146 159.5 230.265 159.511 230.384C159.664 231.688 159.817 232.995 159.962 234.298C159.977 234.417 159.988 234.536 160.003 234.656C160.133 235.836 160.253 237.017 160.357 238.197C160.368 238.313 160.376 238.428 160.387 238.543C160.465 239.448 160.536 240.357 160.592 241.262C160.636 241.992 160.655 242.722 160.666 243.455C160.666 243.575 160.666 243.69 160.67 243.809C160.685 245.113 160.677 246.416 160.737 247.712C160.741 247.831 160.748 247.947 160.756 248.066C160.812 249.023 160.905 249.976 161.076 250.918C161.18 250.643 161.419 250.531 161.702 250.505C161.866 250.49 162.045 250.501 162.224 250.524C162.552 250.565 162.88 250.647 163.099 250.665C163.86 250.732 164.623 250.758 165.387 250.758C165.562 250.758 165.734 250.758 165.909 250.755C165.928 250.755 165.946 250.755 165.965 250.755C166.255 250.751 168.294 250.684 169.803 250.58C169.985 250.568 170.16 250.554 170.321 250.542C170.984 250.486 171.453 250.423 171.457 250.356C171.52 249.272 171.558 248.189 171.573 247.105C171.573 246.986 171.573 246.867 171.576 246.748C171.591 245.31 171.573 243.876 171.528 242.439C171.528 242.323 171.52 242.204 171.517 242.089C171.465 240.484 171.383 238.879 171.297 237.274C171.289 237.154 171.286 237.035 171.278 236.912C171.207 235.68 171.137 234.447 171.066 233.214C171.058 233.095 171.051 232.976 171.047 232.857C170.973 231.553 170.906 230.254 170.853 228.95C170.85 228.831 170.842 228.712 170.839 228.593C170.809 227.803 170.783 227.01 170.768 226.221C170.757 225.729 170.749 225.237 170.742 224.75C170.742 224.63 170.742 224.511 170.734 224.396C170.708 222.701 170.693 221.007 170.697 219.313C170.697 219.193 170.697 219.078 170.697 218.959C170.697 217.834 170.708 216.713 170.723 215.592C170.727 215.294 170.731 214.993 170.738 214.691C170.738 214.572 170.742 214.456 170.745 214.337C170.771 212.956 170.809 211.574 170.861 210.192C170.865 210.073 170.868 209.958 170.876 209.839C170.909 208.96 170.95 208.085 170.995 207.209C171.003 207.046 171.014 206.882 171.021 206.718C171.04 206.859 171.058 206.997 171.073 207.139C171.088 207.254 171.099 207.37 171.114 207.485C171.159 207.857 171.2 208.23 171.241 208.602C171.252 208.721 171.267 208.841 171.278 208.96C171.368 209.82 171.457 210.68 171.543 211.54C171.554 211.656 171.565 211.771 171.576 211.887C171.707 213.227 171.83 214.564 171.949 215.905C171.96 216.02 171.968 216.136 171.979 216.251C172.098 217.652 172.214 219.052 172.318 220.452C172.325 220.568 172.336 220.683 172.344 220.798C172.381 221.301 172.418 221.8 172.456 222.303C172.299 223.454 172.389 224.616 172.508 225.77C172.519 225.885 172.534 226.001 172.545 226.116C172.545 226.116 172.545 226.12 172.545 226.124C172.664 227.226 172.799 228.328 172.94 229.427C173.126 230.853 173.331 232.276 173.559 233.698C173.577 233.81 173.596 233.926 173.615 234.037C173.633 234.153 173.652 234.268 173.67 234.384C173.872 235.59 174.084 236.797 174.315 238.003C174.33 238.089 174.349 238.179 174.363 238.264C174.371 238.294 174.375 238.32 174.382 238.35C174.669 239.81 175.094 241.255 175.485 242.696C175.519 242.811 175.548 242.93 175.582 243.046C175.582 243.057 175.589 243.068 175.589 243.079C175.958 244.454 176.331 245.802 176.744 247.139C176.778 247.25 176.815 247.366 176.849 247.477C177.139 248.405 177.452 249.328 177.795 250.252C178.265 250.051 178.742 249.861 179.226 249.686C179.405 249.619 179.584 249.555 179.763 249.496C181.451 248.915 183.198 248.483 184.975 248.211C185.158 248.185 185.344 248.155 185.527 248.133C185.903 248.084 186.28 248.04 186.66 248.003C186.63 247.328 186.589 246.658 186.537 245.992H186.548Z" fill="url(#paint18_linear_18_7601)"/>
<path d="M196.396 176.039C196.314 172.274 195.487 165.787 194.909 163.31C193.724 158.235 190.531 155.792 187.856 156.283C186.261 155.121 183.928 153.725 181.995 152.798C178 155.501 176.465 151.695 176.39 151.397C175.261 151.341 173.965 151.408 172.709 151.669C171.979 151.818 171.252 151.945 170.544 152.068C168.022 150.593 165.425 149.215 164.031 148.615C157.048 145.606 152.029 149.36 154.392 154.131C154.98 155.315 158.874 157.896 162.79 160.208C161.095 165.768 158.844 173.835 157.693 179.391C156.661 184.37 157.749 185.238 157.749 185.238C158.2 187.271 178.384 194.067 183.593 189.781C185.922 187.863 185.113 178.222 185.113 178.222C185.326 177.544 185.534 176.855 185.747 176.158C185.933 177.291 186.104 178.136 186.227 178.534C187.084 181.234 190.382 182.977 192.301 182.653C193.37 182.471 196.526 182.113 196.392 176.043L196.396 176.039Z" fill="url(#paint19_linear_18_7601)"/>
</g>
<defs>
<linearGradient id="paint0_linear_18_7601" x1="280.437" y1="19.8261" x2="291.604" y2="3.70615" gradientUnits="userSpaceOnUse">
<stop stop-color="#DEEBFB"/>
<stop offset="1" stop-color="#1E7DF4"/>
</linearGradient>
<linearGradient id="paint1_linear_18_7601" x1="286.615" y1="37.445" x2="288.873" y2="46.985" gradientUnits="userSpaceOnUse">
<stop stop-color="#DEEBFB"/>
<stop offset="1" stop-color="#1E7DF4"/>
</linearGradient>
<linearGradient id="paint2_linear_18_7601" x1="325.826" y1="61.8044" x2="338.281" y2="43.8294" gradientUnits="userSpaceOnUse">
<stop stop-color="#DEEBFB"/>
<stop offset="1" stop-color="#1E7DF4"/>
</linearGradient>
<linearGradient id="paint3_linear_18_7601" x1="31.537" y1="279.743" x2="4.16552" y2="268.713" gradientUnits="userSpaceOnUse">
<stop stop-color="#DEEBFB"/>
<stop offset="0.11" stop-color="#D7E7FA"/>
<stop offset="0.26" stop-color="#C5DCFA"/>
<stop offset="0.44" stop-color="#A7CBF9"/>
<stop offset="0.64" stop-color="#7EB4F7"/>
<stop offset="0.85" stop-color="#4995F5"/>
<stop offset="1" stop-color="#1E7DF4"/>
</linearGradient>
<linearGradient id="paint4_linear_18_7601" x1="21.4512" y1="142.217" x2="300.373" y2="142.217" gradientUnits="userSpaceOnUse">
<stop stop-color="#DEEBFB"/>
<stop offset="0.22" stop-color="#A5C9F5"/>
<stop offset="0.49" stop-color="#68A4EE"/>
<stop offset="0.72" stop-color="#3B8AE9"/>
<stop offset="0.9" stop-color="#207AE7"/>
<stop offset="1" stop-color="#1674E6"/>
</linearGradient>
<linearGradient id="paint5_linear_18_7601" x1="91.5934" y1="72.7484" x2="110.975" y2="118.288" gradientUnits="userSpaceOnUse">
<stop stop-color="#DEEBFB"/>
<stop offset="0.16" stop-color="#DAE8FA"/>
<stop offset="0.31" stop-color="#CFE2FA"/>
<stop offset="0.45" stop-color="#BCD8F9"/>
<stop offset="0.58" stop-color="#A3C9F8"/>
<stop offset="0.71" stop-color="#81B6F7"/>
<stop offset="0.85" stop-color="#589EF6"/>
<stop offset="0.97" stop-color="#2883F4"/>
<stop offset="1" stop-color="#1E7DF4"/>
</linearGradient>
<linearGradient id="paint6_linear_18_7601" x1="160.782" y1="191.088" x2="160.782" y2="103.167" gradientUnits="userSpaceOnUse">
<stop stop-color="#DEEBFB"/>
<stop offset="0.16" stop-color="#DAE8FA"/>
<stop offset="0.3" stop-color="#CFE2F9"/>
<stop offset="0.44" stop-color="#BCD7F7"/>
<stop offset="0.57" stop-color="#A2C7F4"/>
<stop offset="0.7" stop-color="#81B3F1"/>
<stop offset="0.83" stop-color="#579BEC"/>
<stop offset="0.96" stop-color="#287EE7"/>
<stop offset="1" stop-color="#1674E6"/>
</linearGradient>
<linearGradient id="paint7_linear_18_7601" x1="160.912" y1="215.466" x2="160.912" y2="116.857" gradientUnits="userSpaceOnUse">
<stop offset="0.08" stop-color="#DEEBFB"/>
<stop offset="0.26" stop-color="#DBE9FA"/>
<stop offset="0.4" stop-color="#D1E3F9"/>
<stop offset="0.51" stop-color="#C1D9F7"/>
<stop offset="0.62" stop-color="#AACCF5"/>
<stop offset="0.73" stop-color="#8DBBF2"/>
<stop offset="0.83" stop-color="#69A5EE"/>
<stop offset="0.92" stop-color="#3F8CEA"/>
<stop offset="1" stop-color="#1674E6"/>
</linearGradient>
<linearGradient id="paint8_linear_18_7601" x1="160.912" y1="223.655" x2="160.912" y2="138.404" gradientUnits="userSpaceOnUse">
<stop stop-color="#DEEBFB"/>
<stop offset="0.1" stop-color="#D6E6FA"/>
<stop offset="0.26" stop-color="#C1DAF8"/>
<stop offset="0.45" stop-color="#9FC5F4"/>
<stop offset="0.66" stop-color="#6FA9EF"/>
<stop offset="0.89" stop-color="#3385E9"/>
<stop offset="1" stop-color="#1674E6"/>
</linearGradient>
<linearGradient id="paint9_linear_18_7601" x1="115.04" y1="43.1645" x2="140.076" y2="40.1028" gradientUnits="userSpaceOnUse">
<stop stop-color="#E98963"/>
<stop offset="0.17" stop-color="#E98162"/>
<stop offset="0.43" stop-color="#EA6D60"/>
<stop offset="0.73" stop-color="#EC4C5D"/>
<stop offset="1" stop-color="#EF2A5A"/>
</linearGradient>
<linearGradient id="paint10_linear_18_7601" x1="32.3538" y1="188.347" x2="195.897" y2="235.907" gradientUnits="userSpaceOnUse">
<stop stop-color="#DEEBFB"/>
<stop offset="0.11" stop-color="#D8E7FA"/>
<stop offset="0.25" stop-color="#C7DDF8"/>
<stop offset="0.42" stop-color="#ABCDF5"/>
<stop offset="0.6" stop-color="#85B6F1"/>
<stop offset="0.79" stop-color="#5499EC"/>
<stop offset="0.99" stop-color="#1875E6"/>
<stop offset="1" stop-color="#1674E6"/>
</linearGradient>
<linearGradient id="paint11_linear_18_7601" x1="183.582" y1="170.058" x2="224.99" y2="170.058" gradientUnits="userSpaceOnUse">
<stop stop-color="#DEEBFB"/>
<stop offset="1" stop-color="#1674E6"/>
</linearGradient>
<linearGradient id="paint12_linear_18_7601" x1="205.905" y1="227.085" x2="205.905" y2="185.528" gradientUnits="userSpaceOnUse">
<stop stop-color="#DEEBFB"/>
<stop offset="0.37" stop-color="#8EBBF2"/>
<stop offset="0.8" stop-color="#3888E9"/>
<stop offset="1" stop-color="#1674E6"/>
</linearGradient>
<linearGradient id="paint13_linear_18_7601" x1="209.184" y1="259.074" x2="216.294" y2="259.074" gradientUnits="userSpaceOnUse">
<stop stop-color="#DEEBFB"/>
<stop offset="0.11" stop-color="#D8E7FA"/>
<stop offset="0.25" stop-color="#C7DDF8"/>
<stop offset="0.42" stop-color="#ABCDF5"/>
<stop offset="0.6" stop-color="#85B6F1"/>
<stop offset="0.79" stop-color="#5499EC"/>
<stop offset="0.99" stop-color="#1875E6"/>
<stop offset="1" stop-color="#1674E6"/>
</linearGradient>
<linearGradient id="paint14_linear_18_7601" x1="194.909" y1="260.002" x2="204.817" y2="260.002" gradientUnits="userSpaceOnUse">
<stop stop-color="#DEEBFB"/>
<stop offset="0.11" stop-color="#D8E7FA"/>
<stop offset="0.25" stop-color="#C7DDF8"/>
<stop offset="0.42" stop-color="#ABCDF5"/>
<stop offset="0.6" stop-color="#85B6F1"/>
<stop offset="0.79" stop-color="#5499EC"/>
<stop offset="0.99" stop-color="#1875E6"/>
<stop offset="1" stop-color="#1674E6"/>
</linearGradient>
<linearGradient id="paint15_linear_18_7601" x1="157.15" y1="141.048" x2="146.794" y2="147.145" gradientUnits="userSpaceOnUse">
<stop stop-color="#DEEBFB"/>
<stop offset="0.11" stop-color="#D7E7FA"/>
<stop offset="0.25" stop-color="#C5DCF8"/>
<stop offset="0.42" stop-color="#A8CBF5"/>
<stop offset="0.61" stop-color="#80B3F1"/>
<stop offset="0.81" stop-color="#4C94EB"/>
<stop offset="1" stop-color="#1674E6"/>
</linearGradient>
<linearGradient id="paint16_linear_18_7601" x1="166.587" y1="255.168" x2="166.758" y2="260.266" gradientUnits="userSpaceOnUse">
<stop stop-color="#DEEBFB"/>
<stop offset="0.11" stop-color="#D8E7FA"/>
<stop offset="0.25" stop-color="#C7DDF8"/>
<stop offset="0.42" stop-color="#ABCDF5"/>
<stop offset="0.6" stop-color="#85B6F1"/>
<stop offset="0.79" stop-color="#5499EC"/>
<stop offset="0.99" stop-color="#1875E6"/>
<stop offset="1" stop-color="#1674E6"/>
</linearGradient>
<linearGradient id="paint17_linear_18_7601" x1="179.696" y1="257.309" x2="187.833" y2="257.309" gradientUnits="userSpaceOnUse">
<stop stop-color="#DEEBFB"/>
<stop offset="0.11" stop-color="#D8E7FA"/>
<stop offset="0.25" stop-color="#C7DDF8"/>
<stop offset="0.42" stop-color="#ABCDF5"/>
<stop offset="0.6" stop-color="#85B6F1"/>
<stop offset="0.79" stop-color="#5499EC"/>
<stop offset="0.99" stop-color="#1875E6"/>
<stop offset="1" stop-color="#1674E6"/>
</linearGradient>
<linearGradient id="paint18_linear_18_7601" x1="174.2" y1="247.991" x2="171.777" y2="193.337" gradientUnits="userSpaceOnUse">
<stop stop-color="#DEEBFB"/>
<stop offset="0.11" stop-color="#D7E7FA"/>
<stop offset="0.25" stop-color="#C5DCF8"/>
<stop offset="0.42" stop-color="#A8CBF5"/>
<stop offset="0.61" stop-color="#80B3F1"/>
<stop offset="0.81" stop-color="#4C94EB"/>
<stop offset="1" stop-color="#1674E6"/>
</linearGradient>
<linearGradient id="paint19_linear_18_7601" x1="161.62" y1="168.029" x2="192.724" y2="175.09" gradientUnits="userSpaceOnUse">
<stop stop-color="#DEEBFB"/>
<stop offset="0.11" stop-color="#D7E7FA"/>
<stop offset="0.25" stop-color="#C5DCF8"/>
<stop offset="0.42" stop-color="#A8CBF5"/>
<stop offset="0.61" stop-color="#80B3F1"/>
<stop offset="0.81" stop-color="#4C94EB"/>
<stop offset="1" stop-color="#1674E6"/>
</linearGradient>
<clipPath id="clip0_18_7601">
<rect width="343" height="290.553" fill="white"/>
</clipPath>
</defs>
</svg>
