<svg width="482" height="448" viewBox="0 0 482 448" fill="none" xmlns="http://www.w3.org/2000/svg">
<g clip-path="url(#clip0_18_8538)">
<path d="M51.9175 447.998C59.741 447.875 65.9836 441.433 65.8607 433.609C65.7378 425.786 59.296 419.543 51.4724 419.666C43.6489 419.789 37.4063 426.231 37.5292 434.054C37.6521 441.878 44.094 448.121 51.9175 447.998Z" fill="url(#paint0_linear_18_8538)"/>
<path d="M23.0912 438.641C27.4891 438.073 30.5943 434.048 30.0271 429.65C29.4598 425.253 25.4348 422.147 21.0369 422.715C16.6391 423.282 13.5338 427.307 14.1011 431.705C14.6684 436.103 18.6934 439.208 23.0912 438.641Z" fill="url(#paint1_linear_18_8538)"/>
<path d="M469.762 25.8533C473.494 23.4591 474.579 18.4925 472.185 14.7602C469.79 11.0278 464.824 9.94312 461.091 12.3374C457.359 14.7317 456.274 19.6983 458.669 23.4306C461.063 27.1629 466.03 28.2476 469.762 25.8533Z" fill="url(#paint2_linear_18_8538)"/>
<path d="M410.073 3.67343C412.479 -0.0537265 417.452 -1.12246 421.174 1.28354C424.901 3.68954 425.97 8.66266 423.564 12.3845C421.158 16.1116 416.185 17.1803 412.463 14.7743C408.736 12.3683 407.667 7.39522 410.073 3.67343Z" fill="url(#paint3_linear_18_8538)"/>
<path d="M465.417 75.6387C464.262 75.6387 463.091 75.5099 461.92 75.2467C453.446 73.3187 448.113 64.8601 450.041 56.38C450.975 52.2715 453.451 48.7753 457.012 46.5304C460.572 44.2855 464.799 43.5659 468.902 44.5003C477.377 46.4284 482.71 54.887 480.782 63.3671C479.122 70.671 472.608 75.6387 465.411 75.6387H465.417ZM462.313 73.5281C465.959 74.3552 469.713 73.7161 472.876 71.7236C476.04 69.7311 478.242 66.6216 479.069 62.975C479.896 59.3284 479.257 55.5744 477.264 52.4111C475.272 49.2479 472.162 47.046 468.516 46.2189C464.869 45.3865 461.115 46.0309 457.952 48.0234C454.788 50.0159 452.586 53.1254 451.759 56.772C450.046 64.3015 454.783 71.8203 462.313 73.5335V73.5281Z" fill="url(#paint4_linear_18_8538)"/>
<path d="M34.5623 400.668C46.6107 394.932 51.7276 380.514 45.9911 368.466C40.2546 356.417 25.8371 351.301 13.7887 357.037C1.74029 362.773 -3.37655 377.191 2.35993 389.239C8.0964 401.288 22.5139 406.405 34.5623 400.668Z" fill="url(#paint5_linear_18_8538)"/>
<path d="M230.794 94.6021L240.987 95.7353L247.7 87.9803L249.301 95.7461C254.865 88.8879 267.448 77.5775 293.344 70.4669L289.66 76.8686C289.66 76.8686 299.585 71.5786 321.679 78.6248L299.719 83.4583L308.403 89.6075C308.403 89.6075 287.244 75.4937 250.488 98.3239L259.22 102.008L250.305 107.083L249.43 117.303L241.846 110.392L231.857 112.717L236.089 103.372L230.788 94.5914L230.794 94.6021Z" fill="url(#paint6_linear_18_8538)"/>
<path d="M290.74 211.191C256.17 197.121 226.562 233.141 226.562 233.141C226.562 233.141 196.954 197.121 162.384 211.191C144.135 218.619 132.701 236.9 133.372 256.594C134.387 286.39 148.238 339.016 223.748 381.298C225.498 382.275 227.636 382.275 229.387 381.298C304.897 339.016 318.747 286.39 319.762 256.594C320.434 236.9 309 218.619 290.751 211.191H290.74Z" fill="url(#paint7_linear_18_8538)"/>
<g style="mix-blend-mode:soft-light" opacity="0.55">
<path d="M261.443 244.72L263.833 243.463L263.377 246.127L265.31 248.012L262.636 248.398L261.443 250.821L260.246 248.398L257.571 248.012L259.51 246.127L259.054 243.463L261.443 244.72Z" fill="#E8F1FF"/>
</g>
<g style="mix-blend-mode:soft-light" opacity="0.55">
<path d="M211.97 229.193L214.36 227.937L213.903 230.601L215.837 232.486L213.162 232.872L211.97 235.294L210.772 232.872L208.098 232.486L210.031 230.601L209.575 227.937L211.97 229.193Z" fill="#E8F1FF"/>
</g>
<g style="mix-blend-mode:soft-light" opacity="0.55">
<path d="M238.162 342.501L240.552 341.244L240.096 343.908L242.029 345.793L239.36 346.185L238.162 348.602L236.965 346.185L234.295 345.793L236.229 343.908L235.772 341.244L238.162 342.501Z" fill="#E8F1FF"/>
</g>
<g style="mix-blend-mode:soft-light" opacity="0.55">
<path d="M185.703 288.882L188.093 287.625L187.636 290.289L189.569 292.174L186.895 292.561L185.703 294.983L184.505 292.561L181.831 292.174L183.764 290.289L183.307 287.625L185.703 288.882Z" fill="#E8F1FF"/>
</g>
<g style="mix-blend-mode:soft-light" opacity="0.55">
<path d="M280.106 298.049L282.496 296.792L282.039 299.456L283.978 301.341L281.304 301.728L280.106 304.15L278.914 301.728L276.239 301.341L278.173 299.456L277.716 296.792L280.106 298.049Z" fill="#E8F1FF"/>
</g>
<g style="mix-blend-mode:soft-light" opacity="0.55">
<path d="M265.31 336.395L267.7 335.138L267.244 337.802L269.177 339.687L266.508 340.074L265.31 342.496L264.113 340.074L261.443 339.687L263.377 337.802L262.92 335.138L265.31 336.395Z" fill="#E8F1FF"/>
</g>
<g style="mix-blend-mode:soft-light" opacity="0.55">
<path d="M282.072 264.542L284.462 263.286L284.005 265.949L285.944 267.834L283.269 268.221L282.072 270.643L280.879 268.221L278.205 267.834L280.138 265.949L279.682 263.286L282.072 264.542Z" fill="#E8F1FF"/>
</g>
<g style="mix-blend-mode:soft-light" opacity="0.55">
<path d="M302.163 292.56L304.553 291.304L304.096 293.968L306.03 295.853L303.355 296.239L302.163 298.661L300.965 296.239L298.291 295.853L300.224 293.968L299.768 291.304L302.163 292.56Z" fill="#E8F1FF"/>
</g>
<g style="mix-blend-mode:soft-light" opacity="0.55">
<path d="M289.811 225.515L292.201 224.258L291.744 226.922L293.677 228.807L291.003 229.193L289.811 231.615L288.613 229.193L285.944 228.807L287.877 226.922L287.421 224.258L289.811 225.515Z" fill="#E8F1FF"/>
</g>
<g style="mix-blend-mode:soft-light" opacity="0.55">
<path d="M230.429 281.524L232.818 280.267L232.362 282.931L234.295 284.816L231.621 285.203L230.429 287.625L229.231 285.203L226.556 284.816L228.49 282.931L228.033 280.267L230.429 281.524Z" fill="#E8F1FF"/>
</g>
<g style="mix-blend-mode:soft-light" opacity="0.55">
<path d="M257.571 274.166L259.967 272.91L259.51 275.568L261.443 277.459L258.769 277.845L257.571 280.267L256.379 277.845L253.704 277.459L255.638 275.568L255.181 272.91L257.571 274.166Z" fill="#E8F1FF"/>
</g>
<g style="mix-blend-mode:soft-light" opacity="0.55">
<path d="M208.098 257.185L210.488 255.928L210.031 258.592L211.97 260.477L209.295 260.864L208.098 263.286L206.906 260.864L204.231 260.477L206.164 258.592L205.708 255.928L208.098 257.185Z" fill="#E8F1FF"/>
</g>
<g style="mix-blend-mode:soft-light" opacity="0.55">
<path d="M146.036 232.872L148.426 231.615L147.969 234.279L149.903 236.164L147.233 236.551L146.036 238.973L144.838 236.551L142.169 236.164L144.102 234.279L143.646 231.615L146.036 232.872Z" fill="#E8F1FF"/>
</g>
<g style="mix-blend-mode:soft-light" opacity="0.55">
<path d="M251.889 305.031L254.279 303.774L253.823 306.438L255.756 308.323L253.087 308.71L251.889 311.132L250.697 308.71L248.022 308.323L249.956 306.438L249.499 303.774L251.889 305.031Z" fill="#E8F1FF"/>
</g>
<g style="mix-blend-mode:soft-light" opacity="0.55">
<path d="M177.964 320.976L180.354 319.719L179.897 322.383L181.831 324.268L179.161 324.655L177.964 327.077L176.766 324.655L174.097 324.268L176.03 322.383L175.574 319.719L177.964 320.976Z" fill="#E8F1FF"/>
</g>
<g style="mix-blend-mode:soft-light" opacity="0.55">
<path d="M153.769 305.031L156.165 303.774L155.708 306.438L157.642 308.323L154.967 308.71L153.769 311.132L152.577 308.71L149.903 308.323L151.836 306.438L151.38 303.774L153.769 305.031Z" fill="#E8F1FF"/>
</g>
<g style="mix-blend-mode:soft-light" opacity="0.55">
<path d="M211.97 303.764L214.36 302.507L213.903 305.171L215.837 307.056L213.162 307.442L211.97 309.864L210.772 307.442L208.098 307.056L210.031 305.171L209.575 302.507L211.97 303.764Z" fill="#E8F1FF"/>
</g>
<g style="mix-blend-mode:soft-light" opacity="0.55">
<path d="M202.147 352.737L204.537 351.481L204.081 354.144L206.014 356.03L203.345 356.416L202.147 358.838L200.95 356.416L198.28 356.03L200.214 354.144L199.757 351.481L202.147 352.737Z" fill="#E8F1FF"/>
</g>
<g style="mix-blend-mode:soft-light" opacity="0.55">
<path d="M306.03 244.72L308.42 243.463L307.963 246.127L309.896 248.012L307.222 248.398L306.03 250.821L304.832 248.398L302.163 248.012L304.096 246.127L303.64 243.463L306.03 244.72Z" fill="#E8F1FF"/>
</g>
<g style="mix-blend-mode:soft-light" opacity="0.55">
<path d="M184.467 219.833L186.857 218.576L186.401 221.234L188.334 223.119L185.66 223.511L184.467 225.934L183.27 223.511L180.601 223.119L182.534 221.234L182.078 218.576L184.467 219.833Z" fill="#E8F1FF"/>
</g>
<g style="mix-blend-mode:soft-light" opacity="0.55">
<path d="M265.31 212.475L267.7 211.218L267.244 213.877L269.177 215.762L266.508 216.154L265.31 218.576L264.113 216.154L261.443 215.762L263.377 213.877L262.92 211.218L265.31 212.475Z" fill="#E8F1FF"/>
</g>
<g style="mix-blend-mode:soft-light" opacity="0.55">
<path d="M157.642 259.65L160.031 258.393L159.575 261.057L161.508 262.942L158.834 263.329L157.642 265.751L156.444 263.329L153.769 262.942L155.708 261.057L155.252 258.393L157.642 259.65Z" fill="#E8F1FF"/>
</g>
<path d="M263.189 243.801C263.377 243.855 263.559 243.909 263.747 243.957L263.833 243.463L263.189 243.801ZM184.467 219.827L182.078 218.57L182.196 219.263C183.624 219.661 185.069 220.074 186.524 220.498L186.857 218.57L184.467 219.827ZM213.023 228.64C213.404 228.764 213.791 228.882 214.177 229.005L214.36 227.937L213.023 228.64ZM184.467 219.827L182.078 218.57L182.196 219.263C183.624 219.661 185.069 220.074 186.524 220.498L186.857 218.57L184.467 219.827ZM263.189 243.801C263.377 243.855 263.559 243.909 263.747 243.957L263.833 243.463L263.189 243.801ZM319.676 258.425C319.574 260.402 319.418 262.469 319.193 264.623C353.323 281.846 367.85 301.379 366.572 319.01C364.681 345.16 325.981 351.438 278.575 344.88C252.405 341.261 223.581 333.731 196.83 323.479C182.201 317.866 168.404 311.706 155.918 305.208C155.499 304.993 155.091 304.778 154.677 304.558C150.418 302.319 146.315 300.042 142.389 297.738C101.192 273.522 79.2263 245.966 98.3561 225.02C112.132 209.929 132.427 208.485 157.824 213.34C159.29 212.55 160.81 211.83 162.378 211.191C163.077 210.907 163.769 210.644 164.462 210.402C115.542 196.75 77.121 192.432 53.2436 218.587C18.6626 256.454 83.904 310.364 177.582 347.85C180.268 348.93 182.985 349.993 185.719 351.04C189.962 352.668 194.242 354.241 198.549 355.761C199.038 355.938 199.526 356.11 200.015 356.277C200.015 356.277 200.019 356.278 200.026 356.282H200.031C200.375 356.405 200.724 356.524 201.068 356.642C201.685 356.857 202.298 357.071 202.915 357.281C217.534 362.302 232.443 366.701 247.228 370.374C330.96 391.185 410.906 388.838 414.074 345.031C416.137 316.583 387.603 284.446 319.676 258.425ZM263.833 243.463L263.189 243.801C263.377 243.855 263.559 243.909 263.747 243.957L263.833 243.463ZM214.36 227.937L213.023 228.64C213.404 228.764 213.791 228.882 214.177 229.005L214.36 227.937ZM263.189 243.801C263.377 243.855 263.559 243.909 263.747 243.957L263.833 243.463L263.189 243.801Z" fill="url(#paint8_linear_18_8538)"/>
<path d="M317.974 273.097C317.737 274.403 317.474 275.734 317.179 277.088C324.236 282.867 327.915 288.753 327.496 294.547C326.798 304.182 316.932 310.895 302.324 314.558C278.688 320.493 242.636 318.452 212.926 307.92C211.53 307.431 210.149 306.916 208.791 306.384C207.808 306.003 206.841 305.616 205.88 305.213C173.603 291.765 150.327 280.718 134.811 271.148C109.473 255.509 104.849 243.817 115.553 232.093C121.611 225.455 132.067 223.162 145.075 223.549C146.573 221.83 148.206 220.219 149.956 218.731C133.732 217.357 120.504 220.316 110.886 230.847C95.8374 247.33 109.758 268.468 138.839 287.974C154.618 298.559 174.854 308.667 197.346 317.292C218.737 325.493 241.642 331.706 262.92 335.149C262.931 335.154 262.942 335.154 262.953 335.154C264.172 335.353 265.38 335.541 266.588 335.723H266.594C266.921 335.772 267.249 335.82 267.577 335.868C273.661 336.744 279.585 337.383 285.283 337.764C319.214 340.063 344.929 333.269 346.368 313.371C347.308 300.396 338.495 286.245 317.974 273.097ZM260.396 248.704L261.443 250.82L262.222 249.247C261.615 249.064 261.008 248.887 260.396 248.704ZM257.668 247.92L257.577 248.012L258.398 248.13C258.157 248.06 257.915 247.99 257.668 247.92ZM211.309 233.952L211.97 235.294L212.453 234.317C212.067 234.193 211.685 234.075 211.309 233.952ZM184.387 225.767L184.467 225.928L184.527 225.804C184.478 225.788 184.43 225.778 184.387 225.767Z" fill="url(#paint9_linear_18_8538)"/>
<path d="M75.2467 88.9416C73.1737 86.6269 72.2016 83.5442 72.7172 80.4776C72.9964 78.8396 73.034 77.0888 72.7977 75.295C71.294 63.9095 65.9288 62.6206 59.9943 63.5336C57.7119 63.8826 55.7355 65.0964 54.2318 66.8794C53.496 67.7494 52.5239 68.367 51.4337 68.7C46.4606 70.2038 43.6786 75.295 44.6668 80.1124C45.0803 82.1371 44.6292 84.2692 43.3188 85.8589C41.1706 88.4636 39.9837 91.7665 40.0428 95.1983C40.0804 97.4109 39.0116 99.5001 37.277 100.875C32.9376 104.323 30.7303 110.187 32.4005 116.09C34.1943 122.422 40.2307 126.761 46.8043 126.455C52.5024 126.192 57.1265 122.744 59.2586 118.039C60.5583 115.171 63.163 113.109 66.2833 112.712C66.4068 112.695 66.5303 112.679 66.6538 112.658C78.5711 110.827 82.2714 96.788 75.2413 88.9308L75.2467 88.9416Z" fill="#1E7DF4"/>
<path d="M74.4787 79.4626C74.425 78.8073 74.0007 78.3025 73.5227 78.3401C73.0448 78.3777 72.7011 78.9416 72.7548 79.5968" stroke="#281922" stroke-width="1.08" stroke-miterlimit="10"/>
<path d="M49.0277 85.5743C52.0728 92.4217 59.6667 95.6978 65.9825 92.889C72.3036 90.0802 75.0909 82.1855 71.9116 75.4025C68.4637 68.0395 62.4702 66.4659 56.38 69.7419C49.6936 73.3402 45.9772 78.7322 49.0223 85.5797L49.0277 85.5743Z" fill="#1E7DF4"/>
<path d="M71.7344 95.0425C67.2661 96.7772 58.0287 94.0328 56.294 89.5592C56.294 89.5592 52.8891 83.0125 53.3241 80.4132C54.0867 75.8965 62.8944 72.0727 66.6968 71.3208C72.5238 70.1715 75.44 80.6548 75.44 80.6548C79.0759 88.8342 73.6839 94.2853 71.729 95.0479L71.7344 95.0425Z" fill="#FF8F6A"/>
<path d="M57.4111 99.6504L58.0609 91.8578C56.4068 92.1908 56.7183 90.3916 56.3961 89.5646C56.3961 89.5646 52.9912 83.0179 53.4262 80.4185C54.1888 75.9019 62.9965 72.0781 66.7988 71.3262C72.6259 70.1769 75.5421 80.6602 75.5421 80.6602C79.1779 88.8395 73.7859 94.2906 71.831 95.0533C70.7838 95.4614 69.468 95.6118 68.0502 95.5635L68.598 99.3014C72.019 99.7632 75.1715 102.739 75.1715 102.739C75.1715 102.739 65.9019 126.347 62.2177 124.29C58.5336 122.234 52.3091 102.03 52.3091 102.03C53.829 101.954 55.9825 99.6451 57.4111 99.6666V99.6504Z" fill="#121420"/>
<path d="M51.7291 88.9309C52.5669 90.8106 54.9621 91.686 57.2715 90.7998L54.5486 83.8503C52.2393 84.7365 50.2253 85.5528 51.7291 88.9309Z" fill="#121420"/>
<path d="M52.0621 75.2198C54.8977 72.7333 67.1157 67.7601 67.1157 67.7601C67.1157 67.7601 66.7451 72.8031 62.6313 77.7332C61.5035 79.0812 59.9836 80.3648 58.4745 81.4658C56.9117 82.6043 56.1222 84.5162 56.4874 86.412L56.2296 86.0092C55.467 84.8223 53.931 84.4088 52.6689 85.0479C52.6689 85.0479 49.2318 77.7118 52.0621 75.2252V75.2198Z" fill="#1E7DF4"/>
<path d="M57.6958 85.2305C57.6958 85.2305 64.9782 78.2005 75.295 76.1114C75.295 76.1114 74.1833 67.5776 67.8891 66.1383C63.8182 65.2092 49.5916 71.7881 57.6958 85.2305Z" fill="#1E7DF4"/>
<path d="M74.425 105.848C74.3068 105.01 74.7526 104.285 75.6495 104.237C77.8084 104.124 81.4121 106.525 81.4926 106.68C90.2466 110.306 100.537 111.009 109.726 112.277C114.151 112.889 118.233 114.027 121.858 116.041C122.153 116.1 124.199 116.509 124.473 116.605C126.487 117.019 127.937 117.373 129.28 118.093C131.079 119.054 135.665 121.224 136.39 123.533C136.449 123.721 136.267 123.893 136.079 123.829C132.969 122.771 129.65 121.584 126.46 121.213C127.481 122.98 128.657 124.956 129.231 126.927C127.937 126.906 126.863 125.144 125.955 124.312C124.924 123.361 123.796 122.368 122.84 121.235C112.454 117.175 99.6773 120.923 88.9308 119.398C84.8707 118.823 79.1189 117.255 75.8052 114.591C71.7021 111.294 75.0265 110.075 74.425 105.848Z" fill="#121420"/>
<path d="M45.4133 239.789C44.5326 238.044 43.2275 237.029 41.6539 236.315C40.8806 237.443 40.0106 238.71 39.2641 240.053C38.4853 240.514 37.8838 240.654 37.1588 240.772C36.509 240.869 35.8001 241.089 34.7635 241.664C30.6712 243.957 34.7045 247.367 34.7098 249.08C34.7367 253.098 30.5208 256.062 36.2028 260.144C37.4757 261.057 37.7012 258.398 38.1631 255.638C38.1685 255.557 38.1738 255.493 38.1953 255.412C38.8505 251.529 40.741 247.222 42.4703 245.144C43.1631 244.655 43.8935 244.123 44.6722 243.56C45.2629 243.205 45.8913 242.813 46.4874 242.378C46.1706 241.492 45.8376 240.622 45.4187 239.789H45.4133Z" fill="#121420"/>
<path d="M103.517 219.897C101.707 219.161 100.059 219.258 98.4045 219.757C98.5656 221.116 98.7482 222.641 99.0651 224.15C98.7858 225.01 98.4206 225.515 97.9533 226.073C97.5291 226.578 97.137 227.206 96.7342 228.323C95.166 232.743 100.445 232.657 101.578 233.941C104.248 236.948 103.023 241.954 109.983 241.282C111.541 241.132 109.962 238.984 108.496 236.599C108.447 236.535 108.41 236.481 108.372 236.406C106.31 233.055 104.892 228.56 104.828 225.864C105.026 225.037 105.23 224.161 105.44 223.221C105.649 222.566 105.864 221.852 106.025 221.138C105.209 220.681 104.382 220.241 103.512 219.892L103.517 219.897Z" fill="#121420"/>
<path d="M64.3133 141.521C64.2324 141.461 64.157 141.407 64.0761 141.359C64.0653 141.273 64.0438 141.192 64.033 141.106L64.3133 141.521Z" fill="#E681CD"/>
<path d="M51.2189 138.581C55.7248 135.171 62.0996 134.742 65.6442 137.083C67.7978 152.309 71.0523 164.532 74.0759 183.775C76.1221 196.809 76.9599 213.484 67.9481 223.726C61.9277 230.568 54.554 240.262 46.3424 244.44C45.902 244.666 45.4885 244.859 45.0911 245.042C43.1255 242.958 41.0578 240.971 39.0922 238.892C39.8387 236.895 40.886 234.902 41.7936 233.517C45.4617 227.904 54.7903 217.716 55.0749 210.681C55.2468 206.513 53.453 191.879 52.2769 187.786C50.3435 181.057 45.467 167.679 45.1931 160.671C44.8226 151.337 43.7001 144.274 51.2189 138.581Z" fill="url(#paint10_linear_18_8538)"/>
<path d="M60.3649 141.036L72.1157 137.518C91.6859 145.408 91.0576 151.267 98.0124 161.224C103.759 169.446 109.06 177.738 109.629 187.974C110.128 196.911 110.837 208.592 109.081 217.024C107.964 222.384 99.5645 227.534 96.8524 220.214C94.5968 214.124 95.7622 203.356 95.107 196.89C94.296 188.909 91.4711 186.417 85.7676 180.681C78.4583 173.324 70.9449 169.151 64.5378 160.467C61.9277 156.927 53.743 144.72 60.3649 141.036Z" fill="url(#paint11_linear_18_8538)"/>
<path d="M40.0857 126.723C40.3382 126.546 40.5691 126.342 40.7785 126.116C44.8548 121.756 51.5035 117.98 55.0588 113.163C57.5346 109.811 61.1812 104.151 56.2672 101.283C56.2672 101.283 46.2672 99.0919 30.4349 124.602C30.4349 124.602 28.8291 126.439 29.581 129.699C30.3328 132.964 35.9451 135.316 35.9451 135.316C35.9451 135.316 36.6916 131.906 36.4015 130.601C36.1599 129.527 39.0492 127.438 40.0857 126.723Z" fill="#121420"/>
<path d="M36.9225 131.073C36.4499 135.01 32.3038 145.842 30.5262 151.106L30.1341 152.808C30.0589 153.259 30.0052 153.63 30.0052 153.63C29.9999 153.63 29.9945 153.63 29.9891 153.63C29.8763 154.886 29.4252 159.817 29.2372 160.01L27.6798 162.249C27.4059 162.529 26.9977 162.352 27.0138 161.954C27.0353 161.304 27.0085 161.095 27.379 160.552L27.712 160.069L27.814 158.469L26.2244 162.067L25.3114 163.587C25.0697 163.968 24.7367 164.258 24.3554 164.419C24.3554 164.419 24.1299 164.462 24.0493 164.403C23.9687 164.344 23.9258 164.242 23.9258 164.129C23.9258 164.129 23.8667 163.662 24.3017 162.84L25.118 161.487L26.2029 159.081C26.4016 158.426 26.0847 158.807 26.0149 158.952L24.6615 161.729L23.3834 163.742C23.1417 164.124 22.8087 164.414 22.4274 164.575L22.4005 164.586C22.3039 164.629 22.1965 164.618 22.1213 164.553C22.0407 164.494 21.9977 164.392 21.9977 164.28V164.247C21.9977 163.807 22.132 163.367 22.3737 162.991L23.5552 161.138L24.9408 157.744C25.1127 157.115 24.8012 157.357 24.683 157.625L23.7432 159.806L22.5617 161.89C22.3415 162.282 22.0192 162.593 21.6433 162.776L21.6164 162.787C21.5198 162.835 21.4177 162.829 21.3318 162.776C21.2512 162.722 21.1975 162.625 21.1922 162.513V162.48C21.1707 162.045 21.2835 161.6 21.5037 161.208L22.5993 159.296L23.6572 156.546C23.6948 156.449 23.5982 156.379 23.5284 156.449L23.3028 156.68L22.1213 158.748L21.6326 160.397C21.4338 160.891 21.1277 161.127 20.6659 161.149C20.4779 161.159 20.3597 160.95 20.4349 160.746L20.9881 158.479L22.1374 156.009L22.798 154.999L26.8688 148.458L27.1427 134.156C27.1427 134.156 26.7614 131.578 28.8022 127.572C31.8044 121.68 37.8946 123.028 36.9279 131.068L36.9225 131.073Z" fill="#121420"/>
<path d="M97.658 110.037C97.3518 109.983 96.2509 109.811 95.9501 109.736C90.1714 108.254 83.6516 104.532 77.7118 103.721C73.5818 103.157 66.8686 102.674 66.7075 108.361C66.7075 108.361 69.0598 118.818 99.0382 120.477C99.0382 120.477 103.27 120.354 103.754 119.505C106.015 115.569 104.006 112.996 104.006 112.996C104.006 112.996 103.147 111.552 101.971 110.912C100.096 109.897 99.2315 110.3 97.6526 110.032L97.658 110.037Z" fill="url(#paint12_linear_18_8538)"/>
<path d="M71.2993 139.72C65.1769 140.751 60.5529 140.391 55.3166 137.072C54.699 134.296 54.3392 126.38 53.598 123.689C52.0567 118.066 49.0868 109.742 50.9181 103.936C52.1211 100.123 59.6023 98.904 63.8558 98.6892C68.4046 98.4582 76.7504 100.719 78.2005 105.343C79.1833 108.485 80.4991 113.243 79.9298 116.487C79.1457 120.934 77.2177 136.17 71.294 139.715L71.2993 139.72Z" fill="url(#paint13_linear_18_8538)"/>
<path d="M40.0857 126.723C40.3596 126.535 40.6013 126.31 40.8269 126.068C44.9031 121.729 51.5196 117.964 55.0642 113.163C57.54 109.811 61.1866 104.151 56.2726 101.283C56.2726 101.283 46.2726 99.0919 30.4402 124.602C30.4402 124.602 28.4907 127.497 28.7217 128.442C29.2802 130.703 32.5294 130.832 33.5498 130.81C33.7539 130.81 33.9472 130.773 34.1405 130.714C34.7474 130.526 36.1652 130.053 37.0353 129.495C38.8237 128.34 39.0546 127.438 40.0911 126.723H40.0857Z" fill="url(#paint14_linear_18_8538)"/>
<path d="M52.8032 137.422L54.7796 133.915C62.9804 138.802 71.8525 140.01 75.2682 134.86L75.0211 138.716C75.0211 138.716 70.6549 144.924 52.8086 137.422H52.8032Z" fill="#E8F1FF"/>
<path d="M381.19 170.214L381.292 161.379L387.372 159.548L389.671 161.841C389.671 161.841 389.982 163.254 390.261 164.5C390.68 166.385 395.449 177.266 387.066 179.999C379.735 182.389 381.185 170.225 381.185 170.214H381.19Z" fill="#1E7DF4"/>
<path d="M377.152 170.182L379.472 169.462C382.689 168.469 385.492 166.326 387.055 163.345C388.897 159.838 388.688 156.208 388.349 152.454C388.349 152.454 390.562 150.257 388.935 148.184C386.11 144.581 376.55 145.413 372.85 146.568C367.184 148.335 369.612 158.936 369.612 158.936C370.079 164.881 372.055 168.114 373.795 169.564C374.719 170.338 375.997 170.536 377.146 170.182H377.152Z" fill="#1E7DF4"/>
<path d="M368.28 142.169C369.327 142.024 370.116 141.208 370.508 140.225C370.938 139.151 372.093 138.114 374.987 138.27C378.94 138.479 381.448 139.656 383.768 140.273C382.41 138.673 382.018 136.482 382.018 136.482C383.591 138.957 385.804 140.123 385.804 140.123C391.174 138.415 393.376 142.98 393.376 142.98C392.683 141.686 391.319 141.202 389.918 141.084C392.592 142.271 394.746 145.821 392.995 153.775C392.909 154.177 392.834 154.559 392.769 154.94H392.823C391.255 158.683 391.47 161.583 391.733 162.969L391.964 163.866C391.964 163.866 391.744 164.183 391.405 164.543L390.766 165.311L386.545 166.702C386.545 166.702 385.653 159 383.919 156.417C382.243 153.925 376.862 150.397 376.502 150.16C373.059 151.014 369.617 151.514 368.661 150.289C367.184 148.388 364.977 142.636 368.29 142.174L368.28 142.169Z" fill="#121420"/>
<path d="M387.538 157.529C387.7 159.58 386.008 161.492 383.559 161.815L382.947 156.847C382.743 155.203 384.37 153.839 385.906 154.468C386.787 154.827 387.399 155.687 387.544 157.529H387.538Z" fill="#1E7DF4"/>
<path d="M338.205 231.148L337.276 237.647L342.372 240.799C342.711 239.677 342.275 238.468 341.298 237.818L339.741 236.787L338.21 231.154L338.205 231.148Z" fill="#2F8CF2"/>
<path d="M341.937 223.017L342.77 225.821L338.21 231.148L338.135 237.459L343.731 239.73C344.01 238.817 343.548 237.845 342.662 237.485L342.421 237.389L344.375 237.561L345.809 235.686C345.245 235.439 344.59 235.52 344.101 235.896L343.865 236.078L342.984 235.579C342.984 235.579 347.42 228.898 347.587 226.315C347.678 224.972 345.852 221.229 345.852 221.229L341.932 223.006L341.937 223.017Z" fill="#1E7DF4"/>
<path d="M342.421 237.394L340.627 236.857L339.805 232.888L339.703 237.249L342.421 237.394Z" fill="#2F8CF2"/>
<path d="M342.984 235.584L342.002 234.891L342.061 232.937L342.898 234.789L343.274 235.149L342.984 235.584Z" fill="#2F8CF2"/>
<path d="M343.742 234.408L342.872 233.855L342.329 233.06L343.135 233.688L343.892 234.161L343.742 234.408Z" fill="#2F8CF2"/>
<path d="M432.044 122.937L430.567 116.541L424.676 115.44C424.767 116.605 425.61 117.577 426.754 117.83L428.58 118.233L432.044 122.937Z" fill="#2F8CF2"/>
<path d="M431.502 131.868L429.713 129.554L432.044 122.937L429.837 117.024L423.795 116.922C423.865 117.873 424.644 118.614 425.599 118.63H425.857L423.972 119.178L423.312 121.444C423.929 121.471 424.509 121.159 424.826 120.633L424.982 120.381L425.981 120.531C425.981 120.531 424.257 128.361 425.03 130.832C425.433 132.115 428.483 134.946 428.483 134.946L431.502 131.874V131.868Z" fill="#1E7DF4"/>
<path d="M425.863 118.635L427.726 118.485L429.923 121.89L428.451 117.792L425.863 118.635Z" fill="#2F8CF2"/>
<path d="M425.986 120.526L427.157 120.816L427.807 122.658L426.357 121.235L425.879 121.036L425.986 120.526Z" fill="#2F8CF2"/>
<path d="M425.707 121.895L426.717 122.099L427.511 122.642L426.534 122.346L425.653 122.18L425.707 121.895Z" fill="#2F8CF2"/>
<path d="M317.463 314C318.87 317.233 326.518 319.655 329.88 320.428C331.325 320.761 334.697 322.184 336.067 320.788C337.114 319.73 338.118 318.581 339.064 317.415C339.477 316.927 339.88 316.422 340.272 315.922C340.481 315.654 340.691 315.391 340.895 315.133C341.76 314.021 343.081 312.501 342.404 311.099C340.734 307.673 337.791 306.733 335.31 309.639C334.654 310.407 333.833 310.997 332.936 311.438C330.933 312.415 328.5 312.694 326.411 312.652C326.045 312.652 325.723 312.641 325.422 312.63C323.58 312.582 322.812 312.49 321.04 311.953C320.036 311.647 319.424 311.54 318.43 311.792C317.372 312.066 317.125 313.248 317.453 314.005L317.463 314Z" fill="#D9A181"/>
<path d="M317.464 313.999C318.871 317.233 326.518 319.655 329.88 320.428C331.325 320.761 334.698 322.184 336.067 320.788C337.114 319.73 338.119 318.581 339.064 317.415C339.477 316.926 339.88 316.422 340.272 315.922C338.801 315.079 335.938 313.393 332.931 311.443C330.928 312.421 328.495 312.7 326.406 312.657C326.04 312.657 325.718 312.646 325.417 312.635C323.575 312.587 322.807 312.496 321.035 311.959C320.031 311.653 319.418 311.545 318.425 311.798C317.367 312.071 317.12 313.253 317.447 314.01L317.464 313.999Z" fill="#1E7DF4"/>
<path d="M393.543 222.77C389.671 227.389 386.26 232.254 382.367 236.873C377.828 242.26 363.806 260.213 361.185 263.978C356.905 270.144 353.199 276.653 349.558 283.103C346.164 289.112 342.372 294.993 338.479 300.777C338.189 301.207 332.259 309.177 331.959 309.606C334.988 312.512 338.146 315.38 341.755 317.694C346.228 313.35 355.793 300.847 359.794 296.261C364.961 290.337 368.865 283.871 373.242 277.528C375.337 274.494 377.7 271.03 380.39 267.85C380.498 267.781 380.616 267.711 380.712 267.646C386.577 263.951 398.167 255.74 402.248 250.675C406.556 245.332 407.683 240.783 408.935 234.376C412.479 216.239 392.839 222.942 393.543 222.77Z" fill="url(#paint15_linear_18_8538)"/>
<path d="M459.101 320.385C462.699 318.736 464.445 311.953 464.869 309.005C465.051 307.738 466.238 304.692 464.396 303.742C463 303.011 461.507 302.329 459.992 301.696C459.353 301.416 458.709 301.153 458.059 300.89C457.715 300.75 457.372 300.616 457.039 300.477C455.605 299.902 453.628 299.01 452.076 299.784C448.285 301.685 447.603 304.295 451.383 305.971C452.382 306.416 453.199 307.023 453.849 307.716C455.288 309.263 455.97 311.266 456.217 313.033C456.265 313.344 456.303 313.618 456.33 313.871C456.539 315.428 456.545 316.089 456.169 317.657C455.954 318.548 455.916 319.075 456.357 319.88C456.835 320.734 458.252 320.772 459.096 320.385H459.101Z" fill="url(#paint16_linear_18_8538)"/>
<path d="M459.101 320.385C462.699 318.736 464.445 311.953 464.869 309.005C465.052 307.738 466.238 304.692 464.396 303.742C463 303.012 461.507 302.329 459.992 301.696C459.353 301.416 458.709 301.153 458.059 300.89C457.28 302.249 455.712 304.902 453.854 307.716C455.293 309.263 455.975 311.266 456.222 313.033C456.271 313.344 456.308 313.618 456.335 313.871C456.545 315.428 456.55 316.089 456.174 317.657C455.959 318.548 455.922 319.075 456.362 319.88C456.84 320.734 458.258 320.772 459.101 320.385Z" fill="#1E7DF4"/>
<path d="M458.328 298.157C455.755 296.304 443.999 289.268 442.651 288.398C436.212 284.225 430.079 279.784 423.371 275.906C420.659 274.338 417.769 271.637 414.466 270.552C418.666 265.6 421.845 260.101 423.79 254.247C430.342 234.51 425.449 228.109 422.855 223.866C420.089 219.349 412.769 219.086 408.355 221.739C403.328 224.763 403.102 231.675 403 236.32C402.796 246.062 401.26 255.375 399.713 265.01C399.289 267.625 397.742 277.201 406.201 286.169C410.111 290.316 416.534 293.951 421.663 296.868C427.984 300.461 444.101 307.501 450.879 310.074C453.521 306.185 455.841 302.12 458.333 298.151L458.328 298.157Z" fill="url(#paint17_linear_18_8538)"/>
<path d="M434.004 127.282C430.514 128.855 426.894 130.177 423.623 132.126C424.015 134.414 424.525 136.766 424.445 138.539C424.021 147.915 416.094 152.196 409.536 158.302C406.464 161.165 390.476 172.002 397.077 176.927L405.057 184.532C404.665 179.199 411.883 175.568 415.224 172.652C419.241 169.151 423.978 166.148 427.86 162.502C434.235 156.514 438.446 148.909 438.124 140.037C437.962 135.622 437.06 130.493 434.004 127.276V127.282Z" fill="url(#paint18_linear_18_8538)"/>
<path d="M376.169 177.69C372.216 182.147 366.572 185.171 362.383 189.575C357.915 194.269 351.61 200.799 348.043 206.197C343.935 212.416 340.401 218.334 340.068 226.245C343.199 227.26 346.105 228.715 349.069 230.112C349.279 229.725 349.472 229.354 349.66 229.027C354.37 220.638 358.881 213.973 365.519 206.857C370.122 201.916 376.056 197.641 379.971 192.136L376.169 177.695V177.69Z" fill="url(#paint19_linear_18_8538)"/>
<path d="M368.457 182.529C369.407 180.74 376.491 176.122 381.83 173.56C388.784 178.27 391.459 171.637 391.593 171.122C393.564 171.02 395.82 171.143 398.006 171.594C403.865 172.803 409.724 173.152 411.577 175.568C412.613 176.922 420.906 204.188 424.166 219.913C425.965 228.592 424.069 230.101 424.069 230.101C423.279 233.64 389.928 245.896 380.857 238.425C376.797 235.085 376.4 217.872 376.4 217.872C371.813 203.092 366.953 185.375 368.462 182.529H368.457Z" fill="url(#paint20_linear_18_8538)"/>
</g>
<defs>
<linearGradient id="paint0_linear_18_8538" x1="43.9326" y1="422.854" x2="58.3132" y2="443.225" gradientUnits="userSpaceOnUse">
<stop stop-color="#DEEBFB"/>
<stop offset="1" stop-color="#1E7DF4"/>
</linearGradient>
<linearGradient id="paint1_linear_18_8538" x1="17.6524" y1="424.463" x2="25.8064" y2="436.012" gradientUnits="userSpaceOnUse">
<stop stop-color="#DEEBFB"/>
<stop offset="1" stop-color="#1E7DF4"/>
</linearGradient>
<linearGradient id="paint2_linear_18_8538" x1="461.07" y1="12.9172" x2="469.222" y2="24.4677" gradientUnits="userSpaceOnUse">
<stop stop-color="#DEEBFB"/>
<stop offset="1" stop-color="#1E7DF4"/>
</linearGradient>
<linearGradient id="paint3_linear_18_8538" x1="412.374" y1="1.81349" x2="420.525" y2="13.3671" gradientUnits="userSpaceOnUse">
<stop stop-color="#DEEBFB"/>
<stop offset="1" stop-color="#1E7DF4"/>
</linearGradient>
<linearGradient id="paint4_linear_18_8538" x1="456.432" y1="72.8246" x2="474.396" y2="46.9171" gradientUnits="userSpaceOnUse">
<stop stop-color="#DEEBFB"/>
<stop offset="1" stop-color="#1E7DF4"/>
</linearGradient>
<linearGradient id="paint5_linear_18_8538" x1="8.83403" y1="395.927" x2="37.2849" y2="364.307" gradientUnits="userSpaceOnUse">
<stop stop-color="#DEEBFB"/>
<stop offset="0.11" stop-color="#D7E7FA"/>
<stop offset="0.26" stop-color="#C5DCFA"/>
<stop offset="0.44" stop-color="#A7CBF9"/>
<stop offset="0.64" stop-color="#7EB4F7"/>
<stop offset="0.85" stop-color="#4995F5"/>
<stop offset="1" stop-color="#1E7DF4"/>
</linearGradient>
<linearGradient id="paint6_linear_18_8538" x1="232.514" y1="98.6364" x2="313.999" y2="88.6868" gradientUnits="userSpaceOnUse">
<stop stop-color="#E98963"/>
<stop offset="0.17" stop-color="#E98162"/>
<stop offset="0.43" stop-color="#EA6D60"/>
<stop offset="0.73" stop-color="#EC4C5D"/>
<stop offset="1" stop-color="#EF2A5A"/>
</linearGradient>
<linearGradient id="paint7_linear_18_8538" x1="146.428" y1="218.732" x2="299.123" y2="325.713" gradientUnits="userSpaceOnUse">
<stop offset="0.08" stop-color="#DEEBFB"/>
<stop offset="0.18" stop-color="#D5E5FA"/>
<stop offset="0.33" stop-color="#BDD7F7"/>
<stop offset="0.52" stop-color="#95C0F3"/>
<stop offset="0.74" stop-color="#5F9FED"/>
<stop offset="0.98" stop-color="#1A76E6"/>
<stop offset="1" stop-color="#1674E6"/>
</linearGradient>
<linearGradient id="paint8_linear_18_8538" x1="179.274" y1="363.849" x2="279.139" y2="219.8" gradientUnits="userSpaceOnUse">
<stop stop-color="#DEEBFB"/>
<stop offset="1" stop-color="#1E7DF4"/>
</linearGradient>
<linearGradient id="paint9_linear_18_8538" x1="193.135" y1="325.648" x2="258.307" y2="231.642" gradientUnits="userSpaceOnUse">
<stop stop-color="#DEEBFB"/>
<stop offset="1" stop-color="#1E7DF4"/>
</linearGradient>
<linearGradient id="paint10_linear_18_8538" x1="56.9009" y1="232.528" x2="58.9954" y2="153.71" gradientUnits="userSpaceOnUse">
<stop stop-color="#DEEBFB"/>
<stop offset="0.11" stop-color="#D7E7FA"/>
<stop offset="0.25" stop-color="#C5DCF8"/>
<stop offset="0.42" stop-color="#A8CBF5"/>
<stop offset="0.61" stop-color="#80B3F1"/>
<stop offset="0.81" stop-color="#4C94EB"/>
<stop offset="1" stop-color="#1674E6"/>
</linearGradient>
<linearGradient id="paint11_linear_18_8538" x1="74.2907" y1="134.092" x2="99.6397" y2="219.8" gradientUnits="userSpaceOnUse">
<stop stop-color="#DEEBFB"/>
<stop offset="1" stop-color="#1674E6"/>
</linearGradient>
<linearGradient id="paint12_linear_18_8538" x1="78.9273" y1="98.8366" x2="93.3536" y2="125.22" gradientUnits="userSpaceOnUse">
<stop stop-color="#DEEBFB"/>
<stop offset="1" stop-color="#1674E6"/>
</linearGradient>
<linearGradient id="paint13_linear_18_8538" x1="72.8514" y1="106.578" x2="54.9031" y2="130.279" gradientUnits="userSpaceOnUse">
<stop stop-color="#DEEBFB"/>
<stop offset="1" stop-color="#1674E6"/>
</linearGradient>
<linearGradient id="paint14_linear_18_8538" x1="58.7" y1="116.02" x2="28.6948" y2="116.02" gradientUnits="userSpaceOnUse">
<stop stop-color="#DEEBFB"/>
<stop offset="1" stop-color="#1674E6"/>
</linearGradient>
<linearGradient id="paint15_linear_18_8538" x1="409.359" y1="269.692" x2="331.964" y2="269.692" gradientUnits="userSpaceOnUse">
<stop stop-color="#DEEBFB"/>
<stop offset="0.11" stop-color="#D7E7FA"/>
<stop offset="0.25" stop-color="#C5DCF8"/>
<stop offset="0.42" stop-color="#A8CBF5"/>
<stop offset="0.61" stop-color="#80B3F1"/>
<stop offset="0.81" stop-color="#4C94EB"/>
<stop offset="1" stop-color="#1674E6"/>
</linearGradient>
<linearGradient id="paint16_linear_18_8538" x1="465.411" y1="310.047" x2="448.865" y2="310.047" gradientUnits="userSpaceOnUse">
<stop stop-color="#DEEBFB"/>
<stop offset="0.11" stop-color="#D7E7FA"/>
<stop offset="0.25" stop-color="#C5DCF8"/>
<stop offset="0.42" stop-color="#A8CBF5"/>
<stop offset="0.61" stop-color="#80B3F1"/>
<stop offset="0.81" stop-color="#4C94EB"/>
<stop offset="1" stop-color="#1674E6"/>
</linearGradient>
<linearGradient id="paint17_linear_18_8538" x1="458.322" y1="265.058" x2="399.316" y2="265.058" gradientUnits="userSpaceOnUse">
<stop stop-color="#DEEBFB"/>
<stop offset="0.11" stop-color="#D7E7FA"/>
<stop offset="0.25" stop-color="#C5DCF8"/>
<stop offset="0.42" stop-color="#A8CBF5"/>
<stop offset="0.61" stop-color="#80B3F1"/>
<stop offset="0.81" stop-color="#4C94EB"/>
<stop offset="1" stop-color="#1674E6"/>
</linearGradient>
<linearGradient id="paint18_linear_18_8538" x1="438.14" y1="155.907" x2="395.487" y2="155.907" gradientUnits="userSpaceOnUse">
<stop stop-color="#DEEBFB"/>
<stop offset="0.11" stop-color="#CFE2F9"/>
<stop offset="0.33" stop-color="#AACCF5"/>
<stop offset="0.62" stop-color="#6DA8EF"/>
<stop offset="0.98" stop-color="#1B77E6"/>
<stop offset="1" stop-color="#1674E6"/>
</linearGradient>
<linearGradient id="paint19_linear_18_8538" x1="379.966" y1="203.903" x2="340.063" y2="203.903" gradientUnits="userSpaceOnUse">
<stop stop-color="#DEEBFB"/>
<stop offset="0.11" stop-color="#CFE2F9"/>
<stop offset="0.33" stop-color="#AACCF5"/>
<stop offset="0.62" stop-color="#6DA8EF"/>
<stop offset="0.98" stop-color="#1B77E6"/>
<stop offset="1" stop-color="#1674E6"/>
</linearGradient>
<linearGradient id="paint20_linear_18_8538" x1="424.934" y1="205.944" x2="368.172" y2="205.944" gradientUnits="userSpaceOnUse">
<stop stop-color="#DEEBFB"/>
<stop offset="0.11" stop-color="#CFE2F9"/>
<stop offset="0.33" stop-color="#AACCF5"/>
<stop offset="0.62" stop-color="#6DA8EF"/>
<stop offset="0.98" stop-color="#1B77E6"/>
<stop offset="1" stop-color="#1674E6"/>
</linearGradient>
<clipPath id="clip0_18_8538">
<rect width="481.179" height="448" fill="white"/>
</clipPath>
</defs>
</svg>
