<svg width="36" height="36" viewBox="0 0 36 36" fill="none" xmlns="http://www.w3.org/2000/svg">
<path fill-rule="evenodd" clip-rule="evenodd" d="M12 22.5C10.8065 22.5 9.66193 22.9741 8.81802 23.818C7.97411 24.6619 7.5 25.8065 7.5 27C7.5 27.3978 7.65804 27.7794 7.93934 28.0607C8.22064 28.342 8.60218 28.5 9 28.5H27C27.3978 28.5 27.7794 28.342 28.0607 28.0607C28.342 27.7794 28.5 27.3978 28.5 27C28.5 25.8065 28.0259 24.6619 27.182 23.818C26.3381 22.9741 25.1935 22.5 24 22.5H12ZM6.6967 21.6967C8.10322 20.2902 10.0109 19.5 12 19.5H24C25.9891 19.5 27.8968 20.2902 29.3033 21.6967C30.7098 23.1032 31.5 25.0109 31.5 27C31.5 28.1935 31.0259 29.3381 30.182 30.182C29.3381 31.0259 28.1935 31.5 27 31.5H9C7.80653 31.5 6.66193 31.0259 5.81802 30.182C4.97411 29.3381 4.5 28.1935 4.5 27C4.5 25.0109 5.29018 23.1032 6.6967 21.6967Z" fill="url(#paint0_linear_18_7706)"/>
<path fill-rule="evenodd" clip-rule="evenodd" d="M18 7.5C16.3431 7.5 15 8.84315 15 10.5C15 12.1569 16.3431 13.5 18 13.5C19.6569 13.5 21 12.1569 21 10.5C21 8.84315 19.6569 7.5 18 7.5ZM12 10.5C12 7.18629 14.6863 4.5 18 4.5C21.3137 4.5 24 7.18629 24 10.5C24 13.8137 21.3137 16.5 18 16.5C14.6863 16.5 12 13.8137 12 10.5Z" fill="url(#paint1_linear_18_7706)"/>
<defs>
<linearGradient id="paint0_linear_18_7706" x1="7.27941" y1="20.7353" x2="13.6277" y2="37.1749" gradientUnits="userSpaceOnUse">
<stop stop-color="#404065"/>
<stop offset="1" stop-color="#0085FF"/>
</linearGradient>
<linearGradient id="paint1_linear_18_7706" x1="13.2353" y1="5.73529" x2="22.5882" y2="16.5" gradientUnits="userSpaceOnUse">
<stop stop-color="#404065"/>
<stop offset="1" stop-color="#0085FF"/>
</linearGradient>
</defs>
</svg>
